<?xml version="1.0" standalone="no"?><!DOCTYPE svg PUBLIC "-//W3C//DTD SVG 1.1//EN" "http://www.w3.org/Graphics/SVG/1.1/DTD/svg11.dtd" ><svg xmlns="http://www.w3.org/2000/svg"><metadata></metadata><defs><font id="Ascender - Droid Sans" horiz-adv-x="2048"><font-face font-family="Droid Sans" font-weight="400" font-stretch="normal" units-per-em="2048" panose-1="2 11 6 6 3 8 4 2 2 4" ascent="1907" descent="-492" x-height="4" bbox="-352 -492 1966 1907" underline-thickness="102" underline-position="-154" unicode-range="U+0000-2044" /><missing-glyph horiz-adv-x="2048"  /><glyph glyph-name=".null" unicode="" d="" /><glyph glyph-name="nonmarkingreturn" unicode="" d="" /><glyph glyph-name="space" unicode=" " d="" /><glyph glyph-name="exclam" unicode="!" d="M336 414 l-121 0 l-51 1048 l223 0 l-51 -1048 ZM147 111 q0 38 10 64.5 q10 26.5 27 43 q17 16.5 40 24 q23 7.5 50 7.5 q26 0 49.5 -7.5 q23.5 -7.5 40.5 -24 q17 -16.5 27 -43 q10 -26.5 10 -64.5 q0 -37 -10 -63.5 q-10 -26.5 -27 -43.5 q-17 -17 -40.5 -25 q-23.5 -8 -49.5 -8 q-27 0 -50 8 q-23 8 -40 25 q-17 17 -27 43.5 q-10 26.5 -10 63.5 Z" /><glyph glyph-name="quotedbl" unicode="&quot;" d="M330 1462 l-41 -528 l-115 0 l-41 528 l197 0 ZM690 1462 l-41 -528 l-114 0 l-41 528 l196 0 Z" /><glyph glyph-name="numbersign" unicode="#" d="M983 893 l-63 -328 l280 0 l0 -137 l-307 0 l-82 -428 l-147 0 l84 428 l-291 0 l-82 -428 l-144 0 l78 428 l-258 0 l0 137 l285 0 l65 328 l-274 0 l0 137 l299 0 l82 432 l147 0 l-82 -432 l293 0 l84 432 l144 0 l-84 -432 l262 0 l0 -137 l-289 0 ZM483 565 l291 0 l64 328 l-291 0 l-64 -328 Z" /><glyph glyph-name="dollar" unicode="$" d="M985 446 q0 -70 -25 -127 q-25 -57 -71.5 -99 q-46.5 -42 -113 -69.5 q-66.5 -27.5 -150.5 -39.5 l0 -230 l-138 0 l0 221 q-50 0 -101 4.5 q-51 4.5 -99 13.5 q-48 9 -90 22 q-42 13 -74 30 l0 172 q33 -16 76.5 -32.5 q43.5 -16.5 91.5 -29.5 q48 -13 98.5 -21.5 q50.5 -8.5 97.5 -8.5 l0 434 q-89 30 -154.5 63 q-65.5 33 -108.5 75.5 q-43 42.5 -64 97.5 q-21 55 -21 129 q0 67 24.5 122.5 q24.5 55.5 70 97 q45.5 41.5 110 68 q64.5 26.5 143.5 35.5 l0 180 l138 0 l0 -176 q100 -5 184.5 -26 q84.5 -21 151.5 -52 l-66 -145 q-56 25 -126 45.5 q-70 20.5 -144 26.5 l0 -422 q88 -31 155.5 -64 q67.5 -33 113 -74.5 q45.5 -41.5 68.5 -95 q23 -53.5 23 -125.5 ZM809 446 q0 33 -10 60.5 q-10 27.5 -31.5 50 q-21.5 22.5 -56.5 41.5 q-35 19 -86 37 l0 -373 q93 14 138.5 63 q45.5 49 45.5 121 ZM315 1049 q0 -36 8.5 -64.5 q8.5 -28.5 28.5 -52 q20 -23.5 53 -42.5 q33 -19 82 -36 l0 369 q-89 -16 -130.5 -60.5 q-41.5 -44.5 -41.5 -113.5 Z" /><glyph glyph-name="percent" unicode="%" d="M250 1026 q0 -165 35.5 -247.5 q35.5 -82.5 115.5 -82.5 q156 0 156 330 q0 328 -156 328 q-80 0 -115.5 -81.5 q-35.5 -81.5 -35.5 -246.5 ZM705 1026 q0 -108 -18 -194 q-18 -86 -55 -145 q-37 -59 -94.5 -90.5 q-57.5 -31.5 -136.5 -31.5 q-73 0 -129 31.5 q-56 31.5 -94 90.5 q-38 59 -57 145 q-19 86 -19 194 q0 108 17.5 193 q17.5 85 54 143.5 q36.5 58.5 93 89.5 q56.5 31 134.5 31 q75 0 131.5 -31 q56.5 -31 95 -89.5 q38.5 -58.5 58 -143.5 q19.5 -85 19.5 -193 ZM1133 440 q0 -165 35.5 -247 q35.5 -82 115.5 -82 q156 0 156 329 q0 328 -156 328 q-80 0 -115.5 -81.5 q-35.5 -81.5 -35.5 -246.5 ZM1587 440 q0 -108 -17.5 -193.5 q-17.5 -85.5 -54.5 -144.5 q-37 -59 -94.5 -90.5 q-57.5 -31.5 -136.5 -31.5 q-74 0 -130 31.5 q-56 31.5 -93.5 90.5 q-37.5 59 -56.5 144.5 q-19 85.5 -19 193.5 q0 108 17.5 193 q17.5 85 54 143.5 q36.5 58.5 93 89.5 q56.5 31 134.5 31 q75 0 131.5 -31 q56.5 -31 94.5 -89.5 q38 -58.5 57.5 -143.5 q19.5 -85 19.5 -193 ZM1331 1462 l-811 -1462 l-158 0 l812 1462 l157 0 Z" /><glyph glyph-name="ampersand" unicode="&amp;" d="M422 1165 q0 -34 8 -66.5 q8 -32.5 24.5 -65 q16.5 -32.5 42.5 -66 q26 -33.5 62 -70.5 q59 35 102 66 q43 31 71 63 q28 32 42 67 q14 35 14 76 q0 36 -12.5 66.5 q-12.5 30.5 -36 52.5 q-23.5 22 -56.5 34.5 q-33 12.5 -75 12.5 q-86 0 -136 -44.5 q-50 -44.5 -50 -125.5 ZM557 141 q58 0 107 11.5 q49 11.5 91 31.5 q42 20 78 47 q36 27 68 58 l-387 407 q-52 -33 -92 -64.5 q-40 -31.5 -67.5 -67.5 q-27.5 -36 -41.5 -78.5 q-14 -42.5 -14 -98.5 q0 -54 17.5 -99.5 q17.5 -45.5 50.5 -78 q33 -32.5 81 -50.5 q48 -18 109 -18 ZM109 381 q0 78 20 139 q20 61 58.5 111 q38.5 50 94 93 q55.5 43 126.5 85 q-31 36 -61 74.5 q-30 38.5 -52.5 82 q-22.5 43.5 -36.5 93 q-14 49.5 -14 106.5 q0 75 25 134.5 q25 59.5 72 101 q47 41.5 116 63 q69 21.5 157 21.5 q83 0 148.5 -21.5 q65.5 -21.5 111 -63 q45.5 -41.5 69.5 -101 q24 -59.5 24 -134.5 q0 -64 -25 -118.5 q-25 -54.5 -67 -101 q-42 -46.5 -96.5 -86 q-54.5 -39.5 -114.5 -75.5 l352 -372 q27 29 48.5 59 q21.5 30 38.5 64 q17 34 30.5 73 q13.5 39 23.5 86 l184 0 q-15 -66 -35.5 -121.5 q-20.5 -55.5 -47 -104.5 q-26.5 -49 -59 -91.5 q-32.5 -42.5 -71.5 -83.5 l277 -293 l-225 0 l-168 172 q-49 -45 -97 -80.5 q-48 -35.5 -102 -60 q-54 -24.5 -116 -38 q-62 -13.5 -140 -13.5 q-105 0 -188.5 26.5 q-83.5 26.5 -141 78 q-57.5 51.5 -88 126 q-30.5 74.5 -30.5 170.5 Z" /><glyph glyph-name="quotesingle" unicode="&#39;" d="M330 1462 l-41 -528 l-115 0 l-41 528 l197 0 Z" /><glyph glyph-name="parenleft" unicode="(" d="M82 561 q0 125 18 246.5 q18 121.5 55 236 q37 114.5 93.5 220 q56.5 105.5 134.5 198.5 l172 0 q-140 -193 -212.5 -424 q-72.5 -231 -72.5 -475 q0 -119 18.5 -237 q18.5 -118 54 -231 q35.5 -113 88.5 -219 q53 -106 122 -200 l-170 0 q-78 90 -134.5 193 q-56.5 103 -93.5 215.5 q-37 112.5 -55 232.5 q-18 120 -18 244 Z" /><glyph glyph-name="parenright" unicode=")" d="M535 561 q0 -124 -18 -244 q-18 -120 -55.5 -232.5 q-37.5 -112.5 -94 -215.5 q-56.5 -103 -134.5 -193 l-170 0 q69 94 122 200 q53 106 89 219 q36 113 54 231 q18 118 18 237 q0 244 -72 475 q-72 231 -213 424 l172 0 q78 -93 134.5 -198.5 q56.5 -105.5 94 -220 q37.5 -114.5 55.5 -236 q18 -121.5 18 -246.5 Z" /><glyph glyph-name="asterisk" unicode="*" d="M664 1556 l-43 -393 l397 111 l26 -193 l-378 -28 l245 -326 l-178 -96 l-176 358 l-158 -358 l-184 96 l242 326 l-375 28 l29 193 l391 -111 l-43 393 l205 0 Z" /><glyph glyph-name="plus" unicode="+" d="M489 647 l-387 0 l0 150 l387 0 l0 389 l150 0 l0 -389 l387 0 l0 -150 l-387 0 l0 -385 l-150 0 l0 385 Z" /><glyph glyph-name="comma" unicode="," d="M362 238 l15 -23 q-14 -54 -33.5 -115 q-19.5 -61 -43 -123 q-23.5 -62 -49 -123.5 q-25.5 -61.5 -50.5 -117.5 l-138 0 q15 61 29.5 127 q14.5 66 28 131.5 q13.5 65.5 24.5 128 q11 62.5 19 115.5 l198 0 Z" /><glyph glyph-name="hyphen" unicode="-" d="M82 465 l0 168 l496 0 l0 -168 l-496 0 Z" /><glyph glyph-name="period" unicode="." d="M147 111 q0 38 10 64.5 q10 26.5 27 43 q17 16.5 40 24 q23 7.5 50 7.5 q26 0 49.5 -7.5 q23.5 -7.5 40.5 -24 q17 -16.5 27 -43 q10 -26.5 10 -64.5 q0 -37 -10 -63.5 q-10 -26.5 -27 -43.5 q-17 -17 -40.5 -25 q-23.5 -8 -49.5 -8 q-27 0 -50 8 q-23 8 -40 25 q-17 17 -27 43.5 q-10 26.5 -10 63.5 Z" /><glyph glyph-name="slash" unicode="/" d="M743 1462 l-544 -1462 l-179 0 l545 1462 l178 0 Z" /><glyph glyph-name="zero" unicode="0" d="M1032 733 q0 -177 -25.5 -317 q-25.5 -140 -82 -237 q-56.5 -97 -145.5 -148 q-89 -51 -216 -51 q-118 0 -205.5 51 q-87.5 51 -145 148 q-57.5 97 -86 237 q-28.5 140 -28.5 317 q0 177 25.5 317 q25.5 140 81 236.5 q55.5 96.5 144 147.5 q88.5 51 214.5 51 q119 0 207 -50.5 q88 -50.5 146 -147 q58 -96.5 87 -236.5 q29 -140 29 -318 ZM283 733 q0 -150 15 -262 q15 -112 48 -186.5 q33 -74.5 86.5 -112 q53.5 -37.5 130.5 -37.5 q77 0 131 37 q54 37 88.5 111 q34.5 74 50 186.5 q15.5 112.5 15.5 263.5 q0 150 -15.5 262 q-15.5 112 -50 186 q-34.5 74 -88.5 111 q-54 37 -131 37 q-77 0 -130.5 -37 q-53.5 -37 -86.5 -111 q-33 -74 -48 -186 q-15 -112 -15 -262 Z" /><glyph glyph-name="one" unicode="1" d="M711 0 l-176 0 l0 913 q0 43 0.5 92 q0.5 49 2 97.5 q1.5 48.5 3 93 q1.5 44.5 2.5 78.5 q-17 -18 -30 -31 q-13 -13 -26.5 -25 q-13.5 -12 -28.5 -25.5 q-15 -13.5 -36 -31.5 l-148 -121 l-96 123 l383 299 l150 0 l0 -1462 Z" /><glyph glyph-name="two" unicode="2" d="M1008 0 l-912 0 l0 156 l350 381 q75 81 134 148 q59 67 100.5 131 q41.5 64 63.5 128.5 q22 64.5 22 140.5 q0 59 -17 104 q-17 45 -48.5 76.5 q-31.5 31.5 -74.5 47.5 q-43 16 -96 16 q-95 0 -171.5 -38.5 q-76.5 -38.5 -145.5 -98.5 l-102 119 q40 36 86 67.5 q46 31.5 99 54.5 q53 23 112 36.5 q59 13.5 124 13.5 q96 0 173.5 -27 q77.5 -27 131.5 -77.5 q54 -50.5 83.5 -123 q29.5 -72.5 29.5 -163.5 q0 -85 -26.5 -162 q-26.5 -77 -73 -151.5 q-46.5 -74.5 -111 -149.5 q-64.5 -75 -139.5 -156 l-281 -299 l0 -8 l689 0 l0 -166 Z" /><glyph glyph-name="three" unicode="3" d="M961 1120 q0 -73 -23 -133 q-23 -60 -64.5 -104 q-41.5 -44 -99.5 -72.5 q-58 -28.5 -129 -40.5 l0 -6 q177 -22 269 -112.5 q92 -90.5 92 -235.5 q0 -96 -32.5 -176 q-32.5 -80 -98.5 -138 q-66 -58 -167 -90 q-101 -32 -239 -32 q-109 0 -205.5 17 q-96.5 17 -181.5 62 l0 170 q87 -46 188.5 -71 q101.5 -25 194.5 -25 q92 0 159 20 q67 20 110.5 57 q43.5 37 64 91 q20.5 54 20.5 121 q0 68 -26.5 116.5 q-26.5 48.5 -75.5 80 q-49 31.5 -119.5 46.5 q-70.5 15 -159.5 15 l-133 0 l0 151 l133 0 q81 0 144 20 q63 20 105.5 57 q42.5 37 64.5 88 q22 51 22 112 q0 52 -18 93 q-18 41 -51 69.5 q-33 28.5 -79 43.5 q-46 15 -102 15 q-107 0 -188.5 -33.5 q-81.5 -33.5 -155.5 -87.5 l-92 125 q38 31 84.5 58 q46.5 27 101.5 47.5 q55 20.5 117.5 32.5 q62.5 12 132.5 12 q108 0 189.5 -27 q81.5 -27 136.5 -75.5 q55 -48.5 83 -115 q28 -66.5 28 -145.5 Z" /><glyph glyph-name="four" unicode="4" d="M1087 328 l-213 0 l0 -328 l-176 0 l0 328 l-675 0 l0 159 l663 983 l188 0 l0 -976 l213 0 l0 -166 ZM698 494 l0 356 q0 56 1.5 117.5 q1.5 61.5 3.5 120 q2 58.5 4.5 109.5 q2.5 51 3.5 85 l-9 0 q-7 -20 -17.5 -44.5 q-10.5 -24.5 -23 -49 q-12.5 -24.5 -25.5 -47.5 q-13 -23 -24 -39 l-411 -608 l497 0 Z" /><glyph glyph-name="five" unicode="5" d="M545 897 q99 0 184.5 -27.5 q85.5 -27.5 149 -81.5 q63.5 -54 99.5 -134 q36 -80 36 -185 q0 -114 -34 -205 q-34 -91 -101 -154 q-67 -63 -165.5 -96.5 q-98.5 -33.5 -226.5 -33.5 q-51 0 -100.5 5 q-49.5 5 -95 14.5 q-45.5 9.5 -86.5 24.5 q-41 15 -74 35 l0 172 q33 -23 77.5 -41 q44.5 -18 93.5 -30 q49 -12 98.5 -18.5 q49.5 -6.5 91.5 -6.5 q79 0 141 18.5 q62 18.5 105 57.5 q43 39 66 98 q23 59 23 140 q0 143 -88 218.5 q-88 75.5 -256 75.5 q-27 0 -58.5 -2.5 q-31.5 -2.5 -63 -6.5 q-31.5 -4 -60 -8.5 q-28.5 -4.5 -49.5 -8.5 l-90 57 l55 688 l690 0 l0 -166 l-532 0 l-39 -419 q32 6 84.5 13 q52.5 7 124.5 7 Z" /><glyph glyph-name="six" unicode="6" d="M113 625 q0 105 10.5 209 q10.5 104 37 199.5 q26.5 95.5 72.5 177.5 q46 82 117 142.5 q71 60.5 170 95 q99 34.5 232 34.5 q19 0 42 -1 q23 -1 46.5 -3.5 q23.5 -2.5 45 -6 q21.5 -3.5 38.5 -8.5 l0 -155 q-35 12 -79 18 q-44 6 -87 6 q-90 0 -158.5 -21.5 q-68.5 -21.5 -118.5 -60.5 q-50 -39 -83.5 -93 q-33.5 -54 -54.5 -119.5 q-21 -65.5 -31 -139.5 q-10 -74 -13 -154 l12 0 q20 36 48.5 67.5 q28.5 31.5 66.5 54 q38 22.5 85.5 35.5 q47.5 13 106.5 13 q95 0 172 -29.5 q77 -29.5 131 -86.5 q54 -57 83.5 -139.5 q29.5 -82.5 29.5 -188.5 q0 -114 -31 -205 q-31 -91 -89 -154.5 q-58 -63.5 -140 -97.5 q-82 -34 -184 -34 q-100 0 -187.5 39 q-87.5 39 -151.5 119 q-64 80 -101 201 q-37 121 -37 286 ZM588 133 q60 0 109.5 20.5 q49.5 20.5 85.5 62 q36 41.5 55.5 105 q19.5 63.5 19.5 150.5 q0 70 -16.5 125.5 q-16.5 55.5 -49.5 94.5 q-33 39 -82.5 60 q-49.5 21 -115.5 21 q-67 0 -122.5 -23.5 q-55.5 -23.5 -94.5 -61 q-39 -37.5 -60.5 -85.5 q-21.5 -48 -21.5 -96 q0 -67 18.5 -133.5 q18.5 -66.5 55 -119.5 q36.5 -53 91.5 -86.5 q55 -33.5 128 -33.5 Z" /><glyph glyph-name="seven" unicode="7" d="M281 0 l563 1296 l-754 0 l0 166 l940 0 l0 -145 l-555 -1317 l-194 0 Z" /><glyph glyph-name="eight" unicode="8" d="M565 1485 q84 0 158.5 -22 q74.5 -22 131 -66 q56.5 -44 89.5 -110 q33 -66 33 -154 q0 -67 -20 -121 q-20 -54 -55 -97.5 q-35 -43.5 -83 -78 q-48 -34.5 -104 -62.5 q58 -31 113.5 -69 q55.5 -38 99 -85.5 q43.5 -47.5 70 -106.5 q26.5 -59 26.5 -132 q0 -92 -33.5 -166.5 q-33.5 -74.5 -94 -126.5 q-60.5 -52 -145 -80 q-84.5 -28 -186.5 -28 q-110 0 -195.5 27 q-85.5 27 -144 77.5 q-58.5 50.5 -89 123.5 q-30.5 73 -30.5 165 q0 75 22.5 135 q22.5 60 60.5 108 q38 48 90 85 q52 37 110 65 q-49 31 -92 67.5 q-43 36.5 -74.5 81.5 q-31.5 45 -50 99.5 q-18.5 54.5 -18.5 120.5 q0 87 33.5 152.5 q33.5 65.5 90.5 109.5 q57 44 131.5 66 q74.5 22 155.5 22 ZM285 371 q0 -53 16 -97.5 q16 -44.5 50 -76 q34 -31.5 86 -49 q52 -17.5 124 -17.5 q70 0 123.5 17.5 q53.5 17.5 89.5 50 q36 32.5 54 78.5 q18 46 18 102 q0 52 -19.5 94 q-19.5 42 -56 78 q-36.5 36 -87.5 68 q-51 32 -114 63 l-30 14 q-126 -60 -190 -137.5 q-64 -77.5 -64 -187.5 ZM563 1333 q-106 0 -168.5 -53 q-62.5 -53 -62.5 -154 q0 -57 17.5 -98 q17.5 -41 48.5 -73 q31 -32 74.5 -57.5 q43.5 -25.5 94.5 -49.5 q48 22 90.5 48 q42.5 26 74 59 q31.5 33 49.5 75 q18 42 18 96 q0 101 -63 154 q-63 53 -173 53 Z" /><glyph glyph-name="nine" unicode="9" d="M1028 838 q0 -105 -10.5 -209.5 q-10.5 -104.5 -37 -199.5 q-26.5 -95 -72.5 -177.5 q-46 -82.5 -117 -142.5 q-71 -60 -170 -94.5 q-99 -34.5 -232 -34.5 q-19 0 -42 1 q-23 1 -46 3.5 q-23 2.5 -45 5.5 q-22 3 -39 8 l0 156 q35 -13 79 -19 q44 -6 87 -6 q135 0 222 47 q87 47 138 127.5 q51 80.5 72.5 187.5 q21.5 107 26.5 226 l-13 0 q-20 -36 -48 -67 q-28 -31 -66 -54 q-38 -23 -86 -36 q-48 -13 -107 -13 q-95 0 -172 29.5 q-77 29.5 -131 86.5 q-54 57 -83.5 139.5 q-29.5 82.5 -29.5 188.5 q0 114 31.5 205.5 q31.5 91.5 89 155 q57.5 63.5 140 97.5 q82.5 34 184.5 34 q101 0 188 -39 q87 -39 151 -119 q64 -80 101 -201.5 q37 -121.5 37 -285.5 ZM553 1329 q-60 0 -109.5 -20 q-49.5 -20 -85.5 -62 q-36 -42 -55.5 -105.5 q-19.5 -63.5 -19.5 -150.5 q0 -70 16.5 -125.5 q16.5 -55.5 49.5 -94.5 q33 -39 82.5 -60 q49.5 -21 115.5 -21 q68 0 123 23.5 q55 23.5 94 61 q39 37.5 60.5 85.5 q21.5 48 21.5 96 q0 67 -18.5 133.5 q-18.5 66.5 -55 120 q-36.5 53.5 -91.5 86.5 q-55 33 -128 33 Z" /><glyph glyph-name="colon" unicode=":" d="M147 111 q0 38 10 64.5 q10 26.5 27 43 q17 16.5 40 24 q23 7.5 50 7.5 q26 0 49.5 -7.5 q23.5 -7.5 40.5 -24 q17 -16.5 27 -43 q10 -26.5 10 -64.5 q0 -37 -10 -63.5 q-10 -26.5 -27 -43.5 q-17 -17 -40.5 -25 q-23.5 -8 -49.5 -8 q-27 0 -50 8 q-23 8 -40 25 q-17 17 -27 43.5 q-10 26.5 -10 63.5 ZM147 987 q0 39 10 65.5 q10 26.5 27 43 q17 16.5 40 23.5 q23 7 50 7 q26 0 49.5 -7 q23.5 -7 40.5 -23.5 q17 -16.5 27 -43 q10 -26.5 10 -65.5 q0 -37 -10 -63 q-10 -26 -27 -43 q-17 -17 -40.5 -25 q-23.5 -8 -49.5 -8 q-27 0 -50 8 q-23 8 -40 25 q-17 17 -27 43 q-10 26 -10 63 Z" /><glyph glyph-name="semicolon" unicode=";" d="M362 238 l15 -23 q-14 -54 -33.5 -115 q-19.5 -61 -43 -123 q-23.5 -62 -49 -123.5 q-25.5 -61.5 -50.5 -117.5 l-138 0 q15 61 29.5 127 q14.5 66 28 131.5 q13.5 65.5 24.5 128 q11 62.5 19 115.5 l198 0 ZM147 987 q0 39 10 65.5 q10 26.5 27 43 q17 16.5 40 23.5 q23 7 50 7 q26 0 49.5 -7 q23.5 -7 40.5 -23.5 q17 -16.5 27 -43 q10 -26.5 10 -65.5 q0 -37 -10 -63 q-10 -26 -27 -43 q-17 -17 -40.5 -25 q-23.5 -8 -49.5 -8 q-27 0 -50 8 q-23 8 -40 25 q-17 17 -27 43 q-10 26 -10 63 Z" /><glyph glyph-name="less" unicode="&lt;" d="M1026 238 l-924 424 l0 102 l924 481 l0 -160 l-735 -364 l735 -322 l0 -161 Z" /><glyph glyph-name="equal" unicode="=" d="M102 852 l0 149 l924 0 l0 -149 l-924 0 ZM102 442 l0 150 l924 0 l0 -150 l-924 0 Z" /><glyph glyph-name="greater" unicode="&gt;" d="M102 399 l736 322 l-736 364 l0 160 l924 -481 l0 -102 l-924 -424 l0 161 Z" /><glyph glyph-name="question" unicode="?" d="M281 414 l0 37 q0 57 7.5 103 q7.5 46 27 86 q19.5 40 52.5 78.5 q33 38.5 83 80.5 q48 41 82 74.5 q34 33.5 55.5 68 q21.5 34.5 32 74 q10.5 39.5 10.5 92.5 q0 48 -15 87.5 q-15 39.5 -43.5 68 q-28.5 28.5 -71 44 q-42.5 15.5 -98.5 15.5 q-83 0 -158 -26 q-75 -26 -145 -60 l-63 145 q81 42 175 71.5 q94 29.5 191 29.5 q93 0 167.5 -25.5 q74.5 -25.5 126.5 -73.5 q52 -48 80 -117.5 q28 -69.5 28 -156.5 q0 -67 -13.5 -119.5 q-13.5 -52.5 -40.5 -97.5 q-27 -45 -67 -87 q-40 -42 -94 -89 q-52 -45 -85 -78.5 q-33 -33.5 -52 -65 q-19 -31.5 -26 -64.5 q-7 -33 -7 -77 l0 -18 l-139 0 ZM233 111 q0 38 10 64.5 q10 26.5 27 43 q17 16.5 40 24 q23 7.5 50 7.5 q26 0 49.5 -7.5 q23.5 -7.5 40.5 -24 q17 -16.5 27 -43 q10 -26.5 10 -64.5 q0 -37 -10 -63.5 q-10 -26.5 -27 -43.5 q-17 -17 -40.5 -25 q-23.5 -8 -49.5 -8 q-27 0 -50 8 q-23 8 -40 25 q-17 17 -27 43.5 q-10 26.5 -10 63.5 Z" /><glyph glyph-name="at" unicode="@" d="M1665 731 q0 -62 -9.5 -124.5 q-9.5 -62.5 -28 -119 q-18.5 -56.5 -47 -105 q-28.5 -48.5 -66.5 -84.5 q-38 -36 -86.5 -56.5 q-48.5 -20.5 -106.5 -20.5 q-45 0 -81.5 15 q-36.5 15 -62.5 40 q-26 25 -42.5 57.5 q-16.5 32.5 -22.5 67.5 l-4 0 q-18 -37 -45 -70 q-27 -33 -62.5 -57.5 q-35.5 -24.5 -80 -38.5 q-44.5 -14 -97.5 -14 q-77 0 -136.5 28 q-59.5 28 -100.5 78.5 q-41 50.5 -62.5 121.5 q-21.5 71 -21.5 157 q0 101 29.5 185 q29.5 84 85 145 q55.5 61 134.5 95 q79 34 177 34 q45 0 90 -4 q45 -4 86 -11 q41 -7 75.5 -15.5 q34.5 -8.5 57.5 -16.5 l-23 -416 q-1 -22 -1.5 -35.5 q-0.5 -13.5 -0.5 -21.5 q0 -8 0 -12 q0 -4 0 -7 q0 -53 10.5 -87 q10.5 -34 27.5 -54 q17 -20 38.5 -27.5 q21.5 -7.5 44.5 -7.5 q46 0 81 30.5 q35 30.5 58.5 82.5 q23.5 52 35.5 122 q12 70 12 148 q0 142 -43 252.5 q-43 110.5 -119 186.5 q-76 76 -180.5 115.5 q-104.5 39.5 -227.5 39.5 q-169 0 -298 -55.5 q-129 -55.5 -216.5 -155 q-87.5 -99.5 -132.5 -236 q-45 -136.5 -45 -298.5 q0 -151 39.5 -268 q39.5 -117 116 -197 q76.5 -80 190 -121 q113.5 -41 260.5 -41 q61 0 120.5 7 q59.5 7 115 19 q55.5 12 105.5 27.5 q50 15.5 93 32.5 l0 -141 q-86 -38 -194 -60 q-108 -22 -238 -22 q-179 0 -319.5 51 q-140.5 51 -238 148.5 q-97.5 97.5 -148.5 238 q-51 140.5 -51 319.5 q0 188 59 350.5 q59 162.5 168.5 281.5 q109.5 119 265 187 q155.5 68 348.5 68 q156 0 287 -50.5 q131 -50.5 226.5 -145 q95.5 -94.5 148.5 -230 q53 -135.5 53 -305.5 ZM662 602 q0 -133 50.5 -192.5 q50.5 -59.5 135.5 -59.5 q55 0 94 22.5 q39 22.5 64 64 q25 41.5 38 99 q13 57.5 17 126.5 l14 253 q-28 8 -66.5 14.5 q-38.5 6.5 -80.5 6.5 q-74 0 -124.5 -29 q-50.5 -29 -82 -76 q-31.5 -47 -45.5 -107 q-14 -60 -14 -122 Z" /><glyph glyph-name="A" unicode="a" d="M1055 0 l-160 453 l-545 0 l-162 -453 l-188 0 l537 1468 l170 0 l538 -1468 l-190 0 ZM836 618 l-148 424 q-6 18 -14.5 44 q-8.5 26 -17.5 56 q-9 30 -18 62.5 q-9 32.5 -17 63.5 q-7 -31 -16 -64 q-9 -33 -18 -63.5 q-9 -30.5 -17.5 -56 q-8.5 -25.5 -14.5 -42.5 l-145 -424 l426 0 Z" /><glyph glyph-name="B" unicode="b" d="M199 1462 l399 0 q128 0 225.5 -19.5 q97.5 -19.5 163 -63 q65.5 -43.5 98.5 -114 q33 -70.5 33 -173.5 q0 -62 -19.5 -116 q-19.5 -54 -56.5 -95 q-37 -41 -91.5 -68.5 q-54.5 -27.5 -123.5 -36.5 l0 -10 q69 -12 129.5 -34.5 q60.5 -22.5 105.5 -62 q45 -39.5 71 -99.5 q26 -60 26 -146 q0 -100 -32.5 -178.5 q-32.5 -78.5 -94 -133 q-61.5 -54.5 -149.5 -83.5 q-88 -29 -199 -29 l-485 0 l0 1462 ZM385 842 l244 0 q84 0 141 15 q57 15 92 44.5 q35 29.5 50.5 74 q15.5 44.5 15.5 103.5 q0 120 -77 172 q-77 52 -243 52 l-223 0 l0 -461 ZM385 686 l0 -528 l266 0 q88 0 147.5 20 q59.5 20 96 56 q36.5 36 52.5 86.5 q16 50.5 16 111.5 q0 56 -16.5 103 q-16.5 47 -54 80.5 q-37.5 33.5 -99.5 52 q-62 18.5 -154 18.5 l-254 0 Z" /><glyph glyph-name="C" unicode="c" d="M793 1319 q-107 0 -194 -40.5 q-87 -40.5 -148.5 -116.5 q-61.5 -76 -95 -185 q-33.5 -109 -33.5 -246 q0 -141 29.5 -250.5 q29.5 -109.5 88.5 -184.5 q59 -75 147 -114 q88 -39 206 -39 q89 0 169 17.5 q80 17.5 158 40.5 l0 -162 q-39 -15 -78 -26.5 q-39 -11.5 -81.5 -18.5 q-42.5 -7 -91 -10.5 q-48.5 -3.5 -107.5 -3.5 q-164 0 -284 54 q-120 54 -198.5 153 q-78.5 99 -116.5 238 q-38 139 -38 308 q0 166 43.5 304 q43.5 138 128 237 q84.5 99 209.5 154 q125 55 287 55 q108 0 206 -22 q98 -22 177 -64 l-78 -156 q-63 32 -137 55 q-74 23 -168 23 Z" /><glyph glyph-name="D" unicode="d" d="M1276 745 q0 -185 -48 -324.5 q-48 -139.5 -139 -233 q-91 -93.5 -223.5 -140.5 q-132.5 -47 -300.5 -47 l-366 0 l0 1462 l407 0 q153 0 277 -46 q124 -46 211 -136.5 q87 -90.5 134.5 -224.5 q47.5 -134 47.5 -310 ZM1079 739 q0 146 -33 252.5 q-33 106.5 -96 175.5 q-63 69 -155 102.5 q-92 33.5 -209 33.5 l-201 0 l0 -1143 l162 0 q264 0 398 146 q134 146 134 433 Z" /><glyph glyph-name="E" unicode="e" d="M958 0 l-759 0 l0 1462 l759 0 l0 -164 l-573 0 l0 -452 l535 0 l0 -162 l-535 0 l0 -520 l573 0 l0 -164 Z" /><glyph glyph-name="F" unicode="f" d="M385 0 l-186 0 l0 1462 l759 0 l0 -164 l-573 0 l0 -516 l535 0 l0 -164 l-535 0 l0 -618 Z" /><glyph glyph-name="G" unicode="g" d="M782 772 l484 0 l0 -717 q-55 -18 -111 -32 q-56 -14 -115 -23.5 q-59 -9.5 -124 -14.5 q-65 -5 -140 -5 q-157 0 -278 52.5 q-121 52.5 -204 150 q-83 97.5 -126 237 q-43 139.5 -43 313.5 q0 172 47.5 311 q47.5 139 138.5 236.5 q91 97.5 224.5 150 q133.5 52.5 304.5 52.5 q111 0 213 -22 q102 -22 190 -64 l-72 -162 q-36 17 -77.5 32 q-41.5 15 -85.5 26.5 q-44 11.5 -90.5 18.5 q-46.5 7 -92.5 7 q-122 0 -216 -40.5 q-94 -40.5 -157.5 -116.5 q-63.5 -76 -96.5 -185 q-33 -109 -33 -246 q0 -130 27.5 -238 q27.5 -108 87.5 -186 q60 -78 155 -121 q95 -43 229 -43 q44 0 80.5 2.5 q36.5 2.5 67.5 6.5 q31 4 58.5 9.5 q27.5 5.5 53.5 10.5 l0 436 l-299 0 l0 164 Z" /><glyph glyph-name="H" unicode="h" d="M1237 0 l-186 0 l0 682 l-666 0 l0 -682 l-186 0 l0 1462 l186 0 l0 -616 l666 0 l0 616 l186 0 l0 -1462 Z" /><glyph glyph-name="I" unicode="i" d="M612 0 l-530 0 l0 102 l172 41 l0 1176 l-172 41 l0 102 l530 0 l0 -102 l-172 -41 l0 -1176 l172 -41 l0 -102 Z" /><glyph glyph-name="J" unicode="j" d="M-29 -389 q-51 0 -89 6.5 q-38 6.5 -66 17.5 l0 160 q34 -9 73 -14.5 q39 -5.5 84 -5.5 q37 0 74.5 9.5 q37.5 9.5 68 34.5 q30.5 25 49.5 69 q19 44 19 112 l0 1462 l187 0 l0 -1442 q0 -105 -29.5 -182 q-29.5 -77 -82 -127.5 q-52.5 -50.5 -126 -75 q-73.5 -24.5 -162.5 -24.5 Z" /><glyph glyph-name="K" unicode="k" d="M1186 0 l-211 0 l-451 698 l-139 -114 l0 -584 l-186 0 l0 1462 l186 0 l0 -731 l121 168 l452 563 l209 0 l-520 -637 l539 -825 Z" /><glyph glyph-name="L" unicode="l" d="M199 0 l0 1462 l186 0 l0 -1296 l573 0 l0 -166 l-759 0 Z" /><glyph glyph-name="M" unicode="m" d="M803 0 l-443 1280 l-8 0 q6 -74 10 -147 q4 -63 6.5 -132.5 q2.5 -69.5 2.5 -126.5 l0 -874 l-172 0 l0 1462 l276 0 l412 -1192 l6 0 l414 1192 l276 0 l0 -1462 l-186 0 l0 887 q0 52 2 119 q2 67 5 128 q4 71 7 144 l-8 0 l-447 -1278 l-153 0 Z" /><glyph glyph-name="N" unicode="n" d="M1294 0 l-215 0 l-719 1210 l-8 0 q6 -77 10 -153 q4 -65 6.5 -136 q2.5 -71 2.5 -128 l0 -793 l-172 0 l0 1462 l213 0 l716 -1204 l7 0 q-3 76 -7 150 q-1 32 -2.5 65.5 q-1.5 33.5 -3 67 q-1.5 33.5 -2 64.5 q-0.5 31 -0.5 57 l0 800 l174 0 l0 -1462 Z" /><glyph glyph-name="O" unicode="o" d="M1393 733 q0 -169 -40.5 -308 q-40.5 -139 -120.5 -238 q-80 -99 -198.5 -153 q-118.5 -54 -273.5 -54 q-163 0 -282.5 54 q-119.5 54 -198 153 q-78.5 99 -116.5 238.5 q-38 139.5 -38 309.5 q0 170 38 308.5 q38 138.5 117 236.5 q79 98 199 151.5 q120 53.5 283 53.5 q155 0 272.5 -53.5 q117.5 -53.5 197.5 -152 q80 -98.5 120.5 -237 q40.5 -138.5 40.5 -309.5 ZM322 733 q0 -137 26 -246.5 q26 -109.5 79.5 -186 q53.5 -76.5 136 -117 q82.5 -40.5 196.5 -40.5 q114 0 196.5 40.5 q82.5 40.5 136 117 q53.5 76.5 78.5 186 q25 109.5 25 246.5 q0 138 -25 247 q-25 109 -78 184.5 q-53 75.5 -135 116 q-82 40.5 -196 40.5 q-114 0 -197 -40.5 q-83 -40.5 -137 -116 q-54 -75.5 -80 -184.5 q-26 -109 -26 -247 Z" /><glyph glyph-name="P" unicode="p" d="M1075 1034 q0 -91 -27.5 -175 q-27.5 -84 -90.5 -148.5 q-63 -64.5 -166.5 -103 q-103.5 -38.5 -255.5 -38.5 l-150 0 l0 -569 l-186 0 l0 1462 l362 0 q134 0 231 -28.5 q97 -28.5 160 -83 q63 -54.5 93 -134.5 q30 -80 30 -182 ZM385 727 l129 0 q93 0 162.5 16 q69.5 16 115 51.5 q45.5 35.5 68.5 92 q23 56.5 23 137.5 q0 142 -82 210.5 q-82 68.5 -256 68.5 l-160 0 l0 -576 Z" /><glyph glyph-name="Q" unicode="q" d="M1393 733 q0 -131 -24.5 -244 q-24.5 -113 -72 -203.5 q-47.5 -90.5 -118.5 -156.5 q-71 -66 -164 -104 q43 -94 111.5 -165.5 q68.5 -71.5 158.5 -131.5 l-121 -142 q-103 73 -189.5 172 q-86.5 99 -137.5 226 q-17 -2 -37.5 -3 q-20.5 -1 -38.5 -1 q-163 0 -282.5 54 q-119.5 54 -198 153 q-78.5 99 -116.5 238.5 q-38 139.5 -38 309.5 q0 170 38 308.5 q38 138.5 117 236.5 q79 98 199 151.5 q120 53.5 283 53.5 q155 0 272.5 -53.5 q117.5 -53.5 197.5 -152 q80 -98.5 120.5 -237 q40.5 -138.5 40.5 -309.5 ZM322 733 q0 -137 26 -246.5 q26 -109.5 79.5 -186 q53.5 -76.5 136 -117 q82.5 -40.5 196.5 -40.5 q114 0 196.5 40.5 q82.5 40.5 136 117 q53.5 76.5 78.5 186 q25 109.5 25 246.5 q0 138 -25 247 q-25 109 -78 184.5 q-53 75.5 -135 116 q-82 40.5 -196 40.5 q-114 0 -197 -40.5 q-83 -40.5 -137 -116 q-54 -75.5 -80 -184.5 q-26 -109 -26 -247 Z" /><glyph glyph-name="R" unicode="r" d="M385 604 l0 -604 l-186 0 l0 1462 l356 0 q266 0 393 -103 q127 -103 127 -312 q0 -87 -24.5 -152 q-24.5 -65 -65 -111.5 q-40.5 -46.5 -92.5 -77.5 q-52 -31 -107 -51 l398 -655 l-219 0 l-351 604 l-229 0 ZM385 762 l164 0 q90 0 153 17.5 q63 17.5 103.5 52 q40.5 34.5 59 86 q18.5 51.5 18.5 120.5 q0 72 -20.5 122 q-20.5 50 -62 82 q-41.5 32 -105 46.5 q-63.5 14.5 -150.5 14.5 l-160 0 l0 -541 Z" /><glyph glyph-name="S" unicode="s" d="M969 391 q0 -97 -34.5 -173.5 q-34.5 -76.5 -98.5 -129.5 q-64 -53 -156 -80.5 q-92 -27.5 -207 -27.5 q-111 0 -207.5 17.5 q-96.5 17.5 -161.5 51.5 l0 178 q34 -16 77.5 -31.5 q43.5 -15.5 91.5 -27.5 q48 -12 99 -19.5 q51 -7.5 101 -7.5 q160 0 236.5 60 q76.5 60 76.5 172 q0 54 -14.5 94 q-14.5 40 -51 73.5 q-36.5 33.5 -97.5 65 q-61 31.5 -154 68.5 q-89 35 -154.5 76.5 q-65.5 41.5 -108 93.5 q-42.5 52 -63 118 q-20.5 66 -20.5 150 q0 88 32 157 q32 69 90 116.5 q58 47.5 138.5 72.5 q80.5 25 177.5 25 q119 0 214 -22.5 q95 -22.5 169 -57.5 l-67 -156 q-65 29 -147.5 50.5 q-82.5 21.5 -170.5 21.5 q-122 0 -189 -56.5 q-67 -56.5 -67 -152.5 q0 -57 15 -98.5 q15 -41.5 50 -75 q35 -33.5 92.5 -63 q57.5 -29.5 141.5 -62.5 q91 -36 159.5 -74 q68.5 -38 114.5 -86 q46 -48 69.5 -111 q23.5 -63 23.5 -149 Z" /><glyph glyph-name="T" unicode="t" d="M625 0 l-187 0 l0 1298 l-418 0 l0 164 l1022 0 l0 -164 l-417 0 l0 -1298 Z" /><glyph glyph-name="U" unicode="u" d="M1245 1464 l0 -948 q0 -114 -33 -212 q-33 -98 -99.5 -170 q-66.5 -72 -167 -113 q-100.5 -41 -236.5 -41 q-128 0 -226 38.5 q-98 38.5 -164.5 109.5 q-66.5 71 -100.5 170.5 q-34 99.5 -34 221.5 l0 942 l187 0 l0 -952 q0 -175 86.5 -271 q86.5 -96 261.5 -96 q89 0 153 27 q64 27 105 76 q41 49 61 117 q20 68 21 149 l0 952 l186 0 Z" /><glyph glyph-name="V" unicode="v" d="M965 1462 l198 0 l-489 -1462 l-187 0 l-487 1462 l197 0 l295 -927 q29 -91 50 -175.5 q21 -84.5 38 -158.5 q15 74 38 158.5 q23 84.5 54 181.5 l293 921 Z" /><glyph glyph-name="W" unicode="w" d="M809 1462 l197 0 l229 -856 q15 -56 29.5 -112 q14.5 -56 27 -108.5 q12.5 -52.5 22 -99.5 q9.5 -47 15.5 -85 q4 38 10 83 q6 45 14 94.5 q8 49.5 17.5 101 q9.5 51.5 20.5 100.5 l200 882 l199 0 l-367 -1462 l-188 0 l-254 938 q-14 51 -27 105 q-13 54 -24 101 q-12 55 -23 107 q-11 -51 -22 -106 q-10 -47 -22.5 -103 q-12.5 -56 -26.5 -110 l-242 -932 l-188 0 l-386 1462 l197 0 l223 -889 q12 -46 22 -95.5 q10 -49.5 18.5 -98.5 q8.5 -49 15.5 -94.5 q7 -45.5 12 -83.5 q5 37 12.5 86 q7.5 49 17.5 103 q10 54 21.5 109.5 q11.5 55.5 24.5 104.5 l225 858 Z" /><glyph glyph-name="X" unicode="x" d="M1120 0 l-211 0 l-354 635 l-367 -635 l-188 0 l453 764 l-422 698 l198 0 l332 -559 l334 559 l190 0 l-421 -692 l456 -770 Z" /><glyph glyph-name="Y" unicode="y" d="M539 723 l340 739 l200 0 l-446 -893 l0 -569 l-187 0 l0 559 l-446 903 l203 0 l336 -739 Z" /><glyph glyph-name="Z" unicode="z" d="M1022 0 l-940 0 l0 145 l711 1151 l-691 0 l0 166 l899 0 l0 -145 l-710 -1151 l731 0 l0 -166 Z" /><glyph glyph-name="bracketleft" unicode="[" d="M569 -324 l-405 0 l0 1786 l405 0 l0 -149 l-223 0 l0 -1487 l223 0 l0 -150 Z" /><glyph glyph-name="backslash" unicode="\" d="M201 1462 l544 -1462 l-178 0 l-544 1462 l178 0 Z" /><glyph glyph-name="bracketright" unicode="]" d="M51 -174 l223 0 l0 1487 l-223 0 l0 149 l406 0 l0 -1786 l-406 0 l0 150 Z" /><glyph glyph-name="asciicircum" unicode="^" d="M41 549 l459 924 l102 0 l447 -924 l-161 0 l-337 735 l-349 -735 l-161 0 Z" /><glyph glyph-name="underscore" unicode="_" d="M846 -324 l-850 0 l0 140 l850 0 l0 -140 Z" /><glyph glyph-name="grave" unicode="`" d="M786 1241 l-120 0 q-35 28 -76 69.5 q-41 41.5 -79.5 85.5 q-38.5 44 -70 84.5 q-31.5 40.5 -47.5 67.5 l0 21 l219 0 q16 -34 37.5 -74.5 q21.5 -40.5 44.5 -81 q23 -40.5 47 -78.5 q24 -38 45 -67 l0 -27 Z" /><glyph glyph-name="a" unicode="a" d="M793 0 l-37 152 l-8 0 q-33 -45 -66 -77.5 q-33 -32.5 -72 -53.5 q-39 -21 -87 -31 q-48 -10 -111 -10 q-69 0 -127 19.5 q-58 19.5 -100.5 60 q-42.5 40.5 -66.5 102 q-24 61.5 -24 145.5 q0 164 115.5 252 q115.5 88 351.5 96 l184 7 l0 69 q0 67 -14.5 112 q-14.5 45 -42 72.5 q-27.5 27.5 -68 39.5 q-40.5 12 -92.5 12 q-83 0 -154.5 -24 q-71.5 -24 -137.5 -58 l-64 137 q74 40 165 68 q91 28 191 28 q102 0 176.5 -20.5 q74.5 -20.5 123 -65 q48.5 -44.5 72.5 -113.5 q24 -69 24 -167 l0 -752 l-131 0 ZM459 127 q61 0 113 19 q52 19 90 57.5 q38 38.5 59.5 97 q21.5 58.5 21.5 137.5 l0 99 l-143 -7 q-90 -4 -151 -20 q-61 -16 -97.5 -44.5 q-36.5 -28.5 -52.5 -69 q-16 -40.5 -16 -91.5 q0 -92 48.5 -135 q48.5 -43 127.5 -43 Z" /><glyph glyph-name="b" unicode="b" d="M670 1118 q94 0 171 -36 q77 -36 131.5 -107.5 q54.5 -71.5 84.5 -177.5 q30 -106 30 -246 q0 -141 -30 -247.5 q-30 -106.5 -84.5 -178.5 q-54.5 -72 -131.5 -108.5 q-77 -36.5 -171 -36.5 q-59 0 -107 13 q-48 13 -86.5 34.5 q-38.5 21.5 -68 50.5 q-29.5 29 -52.5 61 l-12 0 l-37 -139 l-133 0 l0 1556 l182 0 l0 -376 q0 -35 -1 -74.5 q-1 -39.5 -3 -73.5 q-2 -40 -4 -78 l8 0 q23 35 52 65 q29 30 67.5 52 q38.5 22 86.5 34.5 q48 12.5 108 12.5 ZM635 967 q-80 0 -133.5 -25.5 q-53.5 -25.5 -86 -77.5 q-32.5 -52 -46 -130 q-13.5 -78 -13.5 -183 q0 -101 13.5 -179.5 q13.5 -78.5 46 -132 q32.5 -53.5 86.5 -81 q54 -27.5 135 -27.5 q135 0 198.5 109 q63.5 109 63.5 313 q0 208 -63.5 311 q-63.5 103 -200.5 103 Z" /><glyph glyph-name="c" unicode="c" d="M594 -20 q-101 0 -189 31.5 q-88 31.5 -153 100 q-65 68.5 -102 175 q-37 106.5 -37 256.5 q0 157 38 266.5 q38 109.5 104.5 178 q66.5 68.5 155.5 99.5 q89 31 191 31 q78 0 152.5 -17 q74.5 -17 124.5 -42 l-54 -154 q-23 10 -51 19.5 q-28 9.5 -58 17 q-30 7.5 -59 12 q-29 4.5 -55 4.5 q-157 0 -229 -100.5 q-72 -100.5 -72 -312.5 q0 -211 72.5 -308.5 q72.5 -97.5 220.5 -97.5 q81 0 146.5 18.5 q65.5 18.5 119.5 43.5 l0 -162 q-54 -29 -115.5 -44 q-61.5 -15 -150.5 -15 Z" /><glyph glyph-name="d" unicode="d" d="M852 147 l-8 0 q-22 -34 -51.5 -64.5 q-29.5 -30.5 -68 -53.5 q-38.5 -23 -86.5 -36 q-48 -13 -108 -13 q-93 0 -170 36 q-77 36 -132 107.5 q-55 71.5 -85 177.5 q-30 106 -30 246 q0 141 30 247.5 q30 106.5 85 178.5 q55 72 132 108.5 q77 36.5 170 36.5 q59 0 107 -13 q48 -13 86.5 -35 q38.5 -22 68.5 -51 q30 -29 52 -61 l12 0 q-3 34 -6 65 q-2 26 -4 53.5 q-2 27.5 -2 43.5 l0 436 l182 0 l0 -1556 l-147 0 l-27 147 ZM565 131 q76 0 128.5 23 q52.5 23 85 70 q32.5 47 48 117.5 q15.5 70.5 17.5 164.5 l0 41 q0 101 -13.5 179.5 q-13.5 78.5 -46 132 q-32.5 53.5 -86.5 81 q-54 27.5 -135 27.5 q-135 0 -198.5 -109 q-63.5 -109 -63.5 -313 q0 -209 63.5 -311.5 q63.5 -102.5 200.5 -102.5 Z" /><glyph glyph-name="e" unicode="e" d="M608 -20 q-110 0 -201 37 q-91 37 -156.5 108 q-65.5 71 -101.5 176 q-36 105 -36 240 q0 136 33 243 q33 107 93 181.5 q60 74.5 143.5 113.5 q83.5 39 184.5 39 q99 0 178 -35.5 q79 -35.5 134 -100 q55 -64.5 84.5 -155 q29.5 -90.5 29.5 -200.5 l0 -113 l-692 0 q5 -193 81.5 -284 q76.5 -91 227.5 -91 q51 0 94.5 5 q43.5 5 84 14.5 q40.5 9.5 78.5 24 q38 14.5 77 32.5 l0 -162 q-40 -19 -78.5 -33 q-38.5 -14 -79 -23 q-40.5 -9 -84 -13 q-43.5 -4 -94.5 -4 ZM563 967 q-114 0 -180.5 -78 q-66.5 -78 -77.5 -227 l492 0 q0 68 -13.5 124.5 q-13.5 56.5 -42 96.5 q-28.5 40 -72.5 62 q-44 22 -106 22 Z" /><glyph glyph-name="f" unicode="f" d="M651 961 l-245 0 l0 -961 l-183 0 l0 961 l-194 0 l0 75 l194 68 l0 96 q0 107 22.5 177.5 q22.5 70.5 65 112.5 q42.5 42 104.5 59.5 q62 17.5 140 17.5 q59 0 108.5 -11.5 q49.5 -11.5 88.5 -25.5 l-47 -141 q-31 11 -67.5 19.5 q-36.5 8.5 -76.5 8.5 q-40 0 -69 -9.5 q-29 -9.5 -48 -33.5 q-19 -24 -28.5 -65.5 q-9.5 -41.5 -9.5 -106.5 l0 -104 l245 0 l0 -137 Z" /><glyph glyph-name="g" unicode="g" d="M1020 1098 l0 -113 l-197 -27 q28 -35 47 -89.5 q19 -54.5 19 -123.5 q0 -76 -23.5 -140.5 q-23.5 -64.5 -71 -111.5 q-47.5 -47 -117.5 -73.5 q-70 -26.5 -163 -26.5 q-22 0 -44 0.5 q-22 0.5 -36 3.5 q-17 -10 -33.5 -22.5 q-16.5 -12.5 -30 -28.5 q-13.5 -16 -22 -36 q-8.5 -20 -8.5 -44 q0 -27 12 -43.5 q12 -16.5 32.5 -25.5 q20.5 -9 48.5 -12 q28 -3 59 -3 l176 0 q93 0 157 -23.5 q64 -23.5 104.5 -63.5 q40.5 -40 58.5 -94.5 q18 -54.5 18 -115.5 q0 -88 -32.5 -158 q-32.5 -70 -99.5 -118.5 q-67 -48.5 -169.5 -74.5 q-102.5 -26 -241.5 -26 q-107 0 -187 21 q-80 21 -133 61 q-53 40 -79.5 96.5 q-26.5 56.5 -26.5 127.5 q0 60 19.5 105.5 q19.5 45.5 52.5 78.5 q33 33 76.5 54 q43.5 21 90.5 32 q-42 19 -69 60 q-27 41 -27 94 q0 61 32 105.5 q32 44.5 101 86.5 q-43 18 -78.5 49.5 q-35.5 31.5 -60 72 q-24.5 40.5 -38 88.5 q-13.5 48 -13.5 99 q0 89 25 159 q25 70 74 119 q49 49 122 75 q73 26 170 26 q37 0 76.5 -5.5 q39.5 -5.5 66.5 -14.5 l363 0 ZM209 -180 q0 -37 13 -69 q13 -32 42.5 -55 q29.5 -23 78 -36.5 q48.5 -13.5 120.5 -13.5 q186 0 278.5 57.5 q92.5 57.5 92.5 165.5 q0 46 -12 75 q-12 29 -39.5 45.5 q-27.5 16.5 -72.5 22.5 q-45 6 -110 6 l-176 0 q-35 0 -73 -8 q-38 -8 -69.5 -30 q-31.5 -22 -52 -60.5 q-20.5 -38.5 -20.5 -99.5 ZM301 745 q0 -115 54 -171 q54 -56 153 -56 q100 0 151.5 55.5 q51.5 55.5 51.5 174.5 q0 123 -52.5 181 q-52.5 58 -152.5 58 q-99 0 -152 -60 q-53 -60 -53 -182 Z" /><glyph glyph-name="h" unicode="h" d="M860 0 l0 707 q0 130 -52.5 195 q-52.5 65 -164.5 65 q-81 0 -136 -26 q-55 -26 -88.5 -77 q-33.5 -51 -48 -125 q-14.5 -74 -14.5 -170 l0 -569 l-182 0 l0 1556 l182 0 l0 -462 l-8 -144 l10 0 q25 43 59.5 74.5 q34.5 31.5 75.5 52.5 q41 21 87 31 q46 10 94 10 q183 0 275.5 -95.5 q92.5 -95.5 92.5 -305.5 l0 -717 l-182 0 Z" /><glyph glyph-name="i" unicode="i" d="M356 0 l-182 0 l0 1098 l182 0 l0 -1098 ZM160 1395 q0 60 30.5 87 q30.5 27 75.5 27 q22 0 41.5 -6.5 q19.5 -6.5 34 -20.5 q14.5 -14 23 -35.5 q8.5 -21.5 8.5 -51.5 q0 -58 -31.5 -86.5 q-31.5 -28.5 -75.5 -28.5 q-45 0 -75.5 28 q-30.5 28 -30.5 87 Z" /><glyph glyph-name="j" unicode="j" d="M66 -492 q-48 0 -79.5 7 q-31.5 7 -54.5 18 l0 148 q26 -10 53 -15.5 q27 -5.5 62 -5.5 q27 0 50 7.5 q23 7.5 40.5 27 q17.5 19.5 27 52 q9.5 32.5 9.5 83.5 l0 1268 l182 0 l0 -1256 q0 -77 -17 -138.5 q-17 -61.5 -53 -105 q-36 -43.5 -90.5 -67 q-54.5 -23.5 -129.5 -23.5 ZM160 1395 q0 60 30.5 87 q30.5 27 75.5 27 q22 0 41.5 -6.5 q19.5 -6.5 34 -20.5 q14.5 -14 23 -35.5 q8.5 -21.5 8.5 -51.5 q0 -58 -31.5 -86.5 q-31.5 -28.5 -75.5 -28.5 q-45 0 -75.5 28 q-30.5 28 -30.5 87 Z" /><glyph glyph-name="k" unicode="k" d="M342 567 l135 170 l293 361 l211 0 l-401 -475 l428 -623 l-209 0 l-336 504 l-109 -82 l0 -422 l-180 0 l0 1556 l180 0 l0 -714 l-16 -275 l4 0 Z" /><glyph glyph-name="l" unicode="l" d="M356 0 l-182 0 l0 1556 l182 0 l0 -1556 Z" /><glyph glyph-name="m" unicode="m" d="M1489 0 l0 707 q0 130 -50 195 q-50 65 -155 65 q-73 0 -124 -23.5 q-51 -23.5 -83.5 -69 q-32.5 -45.5 -47.5 -113 q-15 -67.5 -15 -155.5 l0 -606 l-183 0 l0 707 q0 130 -49.5 195 q-49.5 65 -154.5 65 q-77 0 -129 -26 q-52 -26 -83.5 -77 q-31.5 -51 -45 -125 q-13.5 -74 -13.5 -170 l0 -569 l-182 0 l0 1098 l148 0 l26 -148 l10 0 q24 43 57 74.5 q33 31.5 72.5 52.5 q39.5 21 84 31 q44.5 10 90.5 10 q120 0 199.5 -44 q79.5 -44 117.5 -138 l8 0 q26 47 62.5 81 q36.5 34 80 56.5 q43.5 22.5 91.5 33.5 q48 11 98 11 q175 0 263.5 -95.5 q88.5 -95.5 88.5 -305.5 l0 -717 l-182 0 Z" /><glyph glyph-name="n" unicode="n" d="M860 0 l0 707 q0 130 -52.5 195 q-52.5 65 -164.5 65 q-81 0 -136 -26 q-55 -26 -88.5 -77 q-33.5 -51 -48 -125 q-14.5 -74 -14.5 -170 l0 -569 l-182 0 l0 1098 l148 0 l26 -148 l10 0 q25 43 59.5 74.5 q34.5 31.5 75.5 52.5 q41 21 87 31 q46 10 94 10 q183 0 275.5 -95.5 q92.5 -95.5 92.5 -305.5 l0 -717 l-182 0 Z" /><glyph glyph-name="o" unicode="o" d="M1069 551 q0 -137 -33.5 -243.5 q-33.5 -106.5 -96 -179 q-62.5 -72.5 -151.5 -110.5 q-89 -38 -200 -38 q-103 0 -190 38 q-87 38 -150.5 110.5 q-63.5 72.5 -99 179 q-35.5 106.5 -35.5 243.5 q0 136 33.5 241.5 q33.5 105.5 95.5 178 q62 72.5 151.5 110 q89.5 37.5 200.5 37.5 q103 0 190 -37.5 q87 -37.5 150.5 -110 q63.5 -72.5 99 -178 q35.5 -105.5 35.5 -241.5 ZM301 551 q0 -209 68.5 -314.5 q68.5 -105.5 222.5 -105.5 q154 0 221.5 105.5 q67.5 105.5 67.5 314.5 q0 209 -68.5 312.5 q-68.5 103.5 -222.5 103.5 q-154 0 -221.5 -103.5 q-67.5 -103.5 -67.5 -312.5 Z" /><glyph glyph-name="p" unicode="p" d="M670 -20 q-59 0 -107 13 q-48 13 -86.5 34.5 q-38.5 21.5 -68 50.5 q-29.5 29 -52.5 61 l-12 0 q3 -34 6 -65 q2 -26 4 -53.5 q2 -27.5 2 -43.5 l0 -469 l-182 0 l0 1590 l148 0 l26 -148 l8 0 q23 35 52 65.5 q29 30.5 67.5 53 q38.5 22.5 86.5 36 q48 13.5 108 13.5 q94 0 171 -36 q77 -36 131.5 -107.5 q54.5 -71.5 84.5 -177.5 q30 -106 30 -246 q0 -141 -30 -247.5 q-30 -106.5 -84.5 -178.5 q-54.5 -72 -131.5 -108.5 q-77 -36.5 -171 -36.5 ZM635 967 q-76 0 -128.5 -23 q-52.5 -23 -85 -70 q-32.5 -47 -48 -117 q-15.5 -70 -17.5 -165 l0 -41 q0 -101 13.5 -179.5 q13.5 -78.5 46 -132 q32.5 -53.5 86.5 -81 q54 -27.5 135 -27.5 q135 0 198.5 109 q63.5 109 63.5 313 q0 208 -63.5 311 q-63.5 103 -200.5 103 Z" /><glyph glyph-name="q" unicode="q" d="M565 131 q76 0 128.5 23 q52.5 23 85 70 q32.5 47 48 117.5 q15.5 70.5 17.5 164.5 l0 41 q0 101 -13.5 179.5 q-13.5 78.5 -46 132 q-32.5 53.5 -86.5 81 q-54 27.5 -135 27.5 q-135 0 -198.5 -109 q-63.5 -109 -63.5 -313 q0 -209 63.5 -311.5 q63.5 -102.5 200.5 -102.5 ZM530 -20 q-93 0 -170 36 q-77 36 -132 107.5 q-55 71.5 -85 177.5 q-30 106 -30 246 q0 141 30 247.5 q30 106.5 85 178.5 q55 72 132 108.5 q77 36.5 170 36.5 q59 0 107 -13.5 q48 -13.5 86 -36 q38 -22.5 68 -53 q30 -30.5 53 -65.5 l8 0 l27 148 l147 0 l0 -1590 l-182 0 l0 469 q0 19 2 48 q2 29 4 56 q3 32 6 66 l-12 0 q-22 -34 -51.5 -64.5 q-29.5 -30.5 -68 -53.5 q-38.5 -23 -86.5 -36 q-48 -13 -108 -13 Z" /><glyph glyph-name="r" unicode="r" d="M649 1118 q29 0 65 -2.5 q36 -2.5 62 -7.5 l-24 -168 q-28 5 -57.5 8.5 q-29.5 3.5 -55.5 3.5 q-63 0 -115 -25.5 q-52 -25.5 -89.5 -73 q-37.5 -47.5 -58 -114 q-20.5 -66.5 -20.5 -147.5 l0 -592 l-182 0 l0 1098 l148 0 l22 -201 l8 0 q25 43 53.5 83 q28.5 40 64 70.5 q35.5 30.5 79.5 49 q44 18.5 100 18.5 Z" /><glyph glyph-name="s" unicode="s" d="M831 301 q0 -80 -29 -140 q-29 -60 -83.5 -100.5 q-54.5 -40.5 -131.5 -60.5 q-77 -20 -173 -20 q-109 0 -187 17.5 q-78 17.5 -137 51.5 l0 166 q31 -16 69 -31.5 q38 -15.5 80 -27.5 q42 -12 86.5 -19.5 q44.5 -7.5 88.5 -7.5 q65 0 110.5 11 q45.5 11 74 31.5 q28.5 20.5 41.5 50 q13 29.5 13 65.5 q0 31 -10 56 q-10 25 -36.5 49.5 q-26.5 24.5 -72.5 49.5 q-46 25 -118 56 q-72 31 -129.5 61 q-57.5 30 -97.5 67 q-40 37 -61.5 85.5 q-21.5 48.5 -21.5 115.5 q0 70 27.5 124.5 q27.5 54.5 77.5 91.5 q50 37 120 56 q70 19 156 19 q97 0 177.5 -21 q80.5 -21 152.5 -55 l-63 -147 q-65 29 -133.5 50.5 q-68.5 21.5 -139.5 21.5 q-102 0 -151 -33.5 q-49 -33.5 -49 -95.5 q0 -35 11.5 -61 q11.5 -26 39.5 -49 q28 -23 75 -46.5 q47 -23.5 117 -52.5 q72 -30 128.5 -60 q56.5 -30 96.5 -67.5 q40 -37.5 61 -85.5 q21 -48 21 -115 Z" /><glyph glyph-name="t" unicode="t" d="M506 129 q18 0 40.5 2 q22.5 2 43.5 5 q21 3 38.5 7 q17.5 4 26.5 7 l0 -138 q-13 -6 -33 -12 q-20 -6 -44 -10.5 q-24 -4.5 -50 -7 q-26 -2.5 -51 -2.5 q-62 0 -115 16 q-53 16 -91.5 55 q-38.5 39 -60.5 105.5 q-22 66.5 -22 167.5 l0 637 l-155 0 l0 81 l155 78 l78 230 l105 0 l0 -252 l276 0 l0 -137 l-276 0 l0 -637 q0 -97 31.5 -146 q31.5 -49 103.5 -49 Z" /><glyph glyph-name="u" unicode="u" d="M885 0 l-27 147 l-10 0 q-25 -43 -59.5 -74.5 q-34.5 -31.5 -75.5 -52 q-41 -20.5 -87 -30.5 q-46 -10 -94 -10 q-91 0 -160 23 q-69 23 -115 72 q-46 49 -69.5 125 q-23.5 76 -23.5 181 l0 717 l182 0 l0 -707 q0 -130 53 -195 q53 -65 164 -65 q81 0 136 26 q55 26 88.5 76.5 q33.5 50.5 48 124.5 q14.5 74 14.5 170 l0 570 l182 0 l0 -1098 l-147 0 Z" /><glyph glyph-name="v" unicode="v" d="M375 0 l-375 1098 l188 0 l199 -611 q11 -33 26 -85 q15 -52 30 -106 q15 -54 27.5 -102 q12.5 -48 16.5 -73 l7 0 q5 25 17 73 q12 48 27 102 q15 54 30 106 q15 52 26 85 l199 611 l188 0 l-375 -1098 l-231 0 Z" /><glyph glyph-name="w" unicode="w" d="M1008 0 l-168 616 q-4 18 -10 40.5 q-6 22.5 -12 47.5 q-6 25 -12.5 51 q-6.5 26 -12.5 51 q-14 58 -29 120 l-6 0 q-14 -63 -27 -121 q-11 -50 -23.5 -103 q-12.5 -53 -23.5 -90 l-172 -612 l-211 0 l-281 1098 l191 0 l131 -584 q10 -45 20 -97.5 q10 -52.5 19 -104 q9 -51.5 16 -97 q7 -45.5 11 -74.5 l6 0 q5 26 13.5 69.5 q8.5 43.5 19 92 q10.5 48.5 21.5 96 q11 47.5 21 80.5 l179 619 l196 0 l172 -619 q9 -34 20.5 -80 q11.5 -46 22.5 -93.5 q11 -47.5 20 -91.5 q9 -44 13 -73 l6 0 q3 26 9.5 69.5 q6.5 43.5 15.5 95.5 q9 52 19.5 106.5 q10.5 54.5 21.5 101.5 l137 584 l186 0 l-284 -1098 l-215 0 Z" /><glyph glyph-name="x" unicode="x" d="M408 563 l-353 535 l207 0 l250 -410 l250 410 l207 0 l-355 -535 l373 -563 l-207 0 l-268 436 l-270 -436 l-207 0 l373 563 Z" /><glyph glyph-name="y" unicode="y" d="M10 1098 l189 0 l215 -613 q14 -40 28.5 -84 q14.5 -44 27 -88 q12.5 -44 21.5 -85 q9 -41 13 -76 l6 0 q5 25 16 68 q11 43 24.5 91.5 q13.5 48.5 28 95.5 q14.5 47 25.5 80 l199 611 l188 0 l-434 -1241 q-28 -81 -60.5 -145.5 q-32.5 -64.5 -75.5 -109.5 q-43 -45 -101 -69.5 q-58 -24.5 -138 -24.5 q-52 0 -90 5.5 q-38 5.5 -65 11.5 l0 145 q21 -5 53 -8.5 q32 -3.5 67 -3.5 q48 0 83 11.5 q35 11.5 61 33.5 q26 22 44.5 54 q18.5 32 33.5 73 l57 160 l-416 1108 Z" /><glyph glyph-name="z" unicode="z" d="M821 0 l-739 0 l0 125 l536 836 l-503 0 l0 137 l688 0 l0 -146 l-524 -815 l542 0 l0 -137 Z" /><glyph glyph-name="braceleft" unicode="{" d="M500 -16 q0 -48 12 -78.5 q12 -30.5 34.5 -48 q22.5 -17.5 55 -24 q32.5 -6.5 72.5 -7.5 l0 -150 q-77 1 -142.5 17.5 q-65.5 16.5 -113 52 q-47.5 35.5 -74.5 90.5 q-27 55 -27 133 l0 334 q0 103 -65.5 146 q-65.5 43 -190.5 43 l0 155 q125 0 190.5 43 q65.5 43 65.5 146 l0 333 q0 78 27 133 q27 55 74.5 90.5 q47.5 35.5 113 52 q65.5 16.5 142.5 17.5 l0 -149 q-40 -1 -72.5 -7.5 q-32.5 -6.5 -55 -24 q-22.5 -17.5 -34.5 -48 q-12 -30.5 -12 -78.5 l0 -332 q0 -105 -59.5 -166.5 q-59.5 -61.5 -174.5 -81.5 l0 -12 q115 -20 174.5 -81 q59.5 -61 59.5 -167 l0 -331 Z" /><glyph glyph-name="bar" unicode="|" d="M489 1556 l150 0 l0 -2048 l-150 0 l0 2048 Z" /><glyph glyph-name="braceright" unicode="}" d="M225 315 q0 106 59.5 167 q59.5 61 174.5 81 l0 12 q-115 20 -174.5 81.5 q-59.5 61.5 -59.5 166.5 l0 332 q0 48 -12 78.5 q-12 30.5 -34.5 48 q-22.5 17.5 -55 24 q-32.5 6.5 -72.5 7.5 l0 149 q77 -1 142.5 -17.5 q65.5 -16.5 113 -52 q47.5 -35.5 74.5 -90.5 q27 -55 27 -133 l0 -333 q0 -52 16.5 -88 q16.5 -36 49 -58.5 q32.5 -22.5 80.5 -32.5 q48 -10 110 -10 l0 -155 q-125 0 -190.5 -43 q-65.5 -43 -65.5 -146 l0 -334 q0 -78 -27 -133 q-27 -55 -74.5 -90.5 q-47.5 -35.5 -113 -52 q-65.5 -16.5 -142.5 -17.5 l0 150 q40 1 72.5 7.5 q32.5 6.5 55 24 q22.5 17.5 34.5 48 q12 30.5 12 78.5 l0 331 Z" /><glyph glyph-name="asciitilde" unicode="~" d="M530 651 q-37 16 -64.5 27 q-27.5 11 -50 17.5 q-22.5 6.5 -43 9 q-20.5 2.5 -42.5 2.5 q-28 0 -58 -9.5 q-30 -9.5 -59.5 -26 q-29.5 -16.5 -57.5 -38.5 q-28 -22 -53 -47 l0 162 q100 108 248 108 q29 0 54 -2.5 q25 -2.5 52.5 -9 q27.5 -6.5 61 -19 q33.5 -12.5 80.5 -32.5 q37 -16 64.5 -27 q27.5 -11 51 -17.5 q23.5 -6.5 43.5 -9 q20 -2.5 42 -2.5 q28 0 58 9.5 q30 9.5 59.5 26 q29.5 16.5 57.5 38.5 q28 22 52 47 l0 -162 q-99 -108 -248 -108 q-29 0 -54 2.5 q-25 2.5 -52.5 9 q-27.5 6.5 -61 19 q-33.5 12.5 -80.5 32.5 Z" /><glyph glyph-name="nonbreakingspace" unicode=" " d="" /><glyph glyph-name="exclamdown" unicode="¡" d="M213 676 l121 0 l51 -1049 l-223 0 l51 1049 ZM401 979 q0 -38 -9.5 -64.5 q-9.5 -26.5 -27 -43 q-17.5 -16.5 -40.5 -24 q-23 -7.5 -50 -7.5 q-26 0 -49 7.5 q-23 7.5 -40.5 24 q-17.5 16.5 -27.5 43 q-10 26.5 -10 64.5 q0 37 10 63 q10 26 27.5 43 q17.5 17 40.5 25 q23 8 49 8 q27 0 50 -8 q23 -8 40.5 -25 q17.5 -17 27 -43 q9.5 -26 9.5 -63 Z" /><glyph glyph-name="cent" unicode="¢" d="M936 240 q-50 -28 -105 -43 q-55 -15 -131 -17 l0 -200 l-137 0 l0 206 q-87 13 -156 50.5 q-69 37.5 -118 104 q-49 66.5 -75 166 q-26 99.5 -26 236.5 q0 141 26.5 242.5 q26.5 101.5 75 169.5 q48.5 68 118 105.5 q69.5 37.5 155.5 50.5 l0 172 l137 0 l0 -164 q72 -3 140 -19.5 q68 -16.5 114 -39.5 l-53 -154 q-23 10 -51 19.5 q-28 9.5 -58 17 q-30 7.5 -59.5 12 q-29.5 4.5 -54.5 4.5 q-157 0 -229 -101 q-72 -101 -72 -313 q0 -210 72.5 -307.5 q72.5 -97.5 220.5 -97.5 q81 0 146.5 18.5 q65.5 18.5 119.5 42.5 l0 -161 Z" /><glyph glyph-name="sterling" unicode="£" d="M666 1481 q106 0 193 -22.5 q87 -22.5 153 -57.5 l-66 -144 q-56 29 -126.5 50.5 q-70.5 21.5 -145.5 21.5 q-48 0 -89 -13.5 q-41 -13.5 -71 -43 q-30 -29.5 -46.5 -76.5 q-16.5 -47 -16.5 -113 l0 -295 l376 0 l0 -137 l-376 0 l0 -211 q0 -62 -11.5 -106.5 q-11.5 -44.5 -31 -76.5 q-19.5 -32 -45 -53.5 q-25.5 -21.5 -52.5 -37.5 l748 0 l0 -166 l-991 0 l0 154 q44 11 80.5 31.5 q36.5 20.5 63 54.5 q26.5 34 41.5 82.5 q15 48.5 15 115.5 l0 213 l-198 0 l0 137 l198 0 l0 324 q0 87 29.5 155.5 q29.5 68.5 82 116 q52.5 47.5 125.5 72.5 q73 25 161 25 Z" /><glyph glyph-name="currency" unicode="¤" d="M186 723 q0 59 17.5 112.5 q17.5 53.5 48.5 100.5 l-129 129 l98 98 l127 -129 q47 32 101 50 q54 18 114 18 q60 0 113.5 -18 q53.5 -18 99.5 -50 l129 129 l99 -96 l-130 -129 q31 -46 49.5 -100.5 q18.5 -54.5 18.5 -114.5 q0 -60 -17.5 -115 q-17.5 -55 -50.5 -100 l127 -127 l-96 -96 l-129 127 q-46 -31 -99.5 -48.5 q-53.5 -17.5 -113.5 -17.5 q-60 0 -115 18 q-55 18 -100 50 l-127 -127 l-96 96 l127 127 q-31 45 -48.5 99 q-17.5 54 -17.5 114 ZM324 723 q0 -50 18.5 -93.5 q18.5 -43.5 51 -76 q32.5 -32.5 76 -51.5 q43.5 -19 93.5 -19 q51 0 95.5 19 q44.5 19 77.5 51.5 q33 32.5 52 76 q19 43.5 19 93.5 q0 51 -19 95.5 q-19 44.5 -52 77.5 q-33 33 -77.5 52 q-44.5 19 -95.5 19 q-50 0 -93.5 -19 q-43.5 -19 -76 -52 q-32.5 -33 -51 -77.5 q-18.5 -44.5 -18.5 -95.5 Z" /><glyph glyph-name="yen" unicode="¥" d="M563 723 l346 739 l191 0 l-385 -768 l239 0 l0 -137 l-301 0 l0 -158 l301 0 l0 -137 l-301 0 l0 -262 l-178 0 l0 262 l-301 0 l0 137 l301 0 l0 158 l-301 0 l0 137 l234 0 l-379 768 l192 0 l342 -739 Z" /><glyph glyph-name="brokenbar" unicode="¦" d="M489 1556 l150 0 l0 -780 l-150 0 l0 780 ZM489 289 l150 0 l0 -781 l-150 0 l0 781 Z" /><glyph glyph-name="section" unicode="§" d="M137 809 q0 51 13 92.5 q13 41.5 35.5 73.5 q22.5 32 51.5 54.5 q29 22.5 60 37.5 q-75 38 -117.5 95 q-42.5 57 -42.5 141 q0 61 27.5 110 q27.5 49 77.5 83 q50 34 120 52.5 q70 18.5 156 18.5 q97 0 175.5 -20 q78.5 -20 150.5 -52 l-56 -139 q-65 28 -135 47.5 q-70 19.5 -141 19.5 q-99 0 -150 -29.5 q-51 -29.5 -51 -86.5 q0 -27 12 -50 q12 -23 40.5 -45 q28.5 -22 76 -45.5 q47.5 -23.5 117.5 -52.5 q72 -28 128.5 -60.5 q56.5 -32.5 95.5 -71.5 q39 -39 60 -87.5 q21 -48.5 21 -110.5 q0 -52 -12 -94.5 q-12 -42.5 -32.5 -76.5 q-20.5 -34 -46.5 -58.5 q-26 -24.5 -54 -40.5 q69 -38 107 -92.5 q38 -54.5 38 -132.5 q0 -71 -29.5 -126.5 q-29.5 -55.5 -83.5 -94 q-54 -38.5 -131.5 -58.5 q-77.5 -20 -173.5 -20 q-108 0 -186 16.5 q-78 16.5 -137 48.5 l0 158 q31 -15 69 -30 q38 -15 80 -26.5 q42 -11.5 86.5 -18.5 q44.5 -7 87.5 -7 q69 0 115.5 12 q46.5 12 74 31.5 q27.5 19.5 39 45 q11.5 25.5 11.5 52.5 q0 29 -8.5 51.5 q-8.5 22.5 -34 45 q-25.5 22.5 -72.5 47 q-47 24.5 -123 55.5 q-73 31 -130.5 62 q-57.5 31 -97.5 70 q-40 39 -60.5 89 q-20.5 50 -20.5 117 ZM291 831 q0 -37 14 -68.5 q14 -31.5 45.5 -60.5 q31.5 -29 82 -56.5 q50.5 -27.5 122.5 -57.5 l35 -15 q20 13 40.5 31 q20.5 18 37 41 q16.5 23 27 51 q10.5 28 10.5 62 q0 38 -13 70 q-13 32 -45.5 61.5 q-32.5 29.5 -86.5 58 q-54 28.5 -136 58.5 q-25 -8 -48.5 -23.5 q-23.5 -15.5 -42.5 -38 q-19 -22.5 -30.5 -51.5 q-11.5 -29 -11.5 -62 Z" /><glyph glyph-name="dieresis" unicode="¨" d="M307 1395 q0 54 28 78 q28 24 68 24 q39 0 68 -24.5 q29 -24.5 29 -77.5 q0 -53 -29 -78 q-29 -25 -68 -25 q-40 0 -68 25 q-28 25 -28 78 ZM682 1395 q0 54 28 78 q28 24 68 24 q19 0 36.5 -6 q17.5 -6 30.5 -18.5 q13 -12.5 21 -31.5 q8 -19 8 -46 q0 -53 -29 -78 q-29 -25 -67 -25 q-40 0 -68 25 q-28 25 -28 78 Z" /><glyph glyph-name="copyright" unicode="©" d="M891 1053 q-61 0 -108 -22 q-47 -22 -79 -63.5 q-32 -41.5 -48.5 -101.5 q-16.5 -60 -16.5 -135 q0 -78 14.5 -138 q14.5 -60 45 -101 q30.5 -41 78 -62.5 q47.5 -21.5 114.5 -21.5 q23 0 50 3.5 q27 3.5 55.5 9.5 q28.5 6 56.5 14.5 q28 8.5 53 17.5 l0 -131 q-24 -11 -48.5 -20 q-24.5 -9 -51 -16 q-26.5 -7 -56.5 -10.5 q-30 -3.5 -65 -3.5 q-102 0 -178 33 q-76 33 -126.5 94 q-50.5 61 -76 146 q-25.5 85 -25.5 188 q0 101 27 184.5 q27 83.5 79.5 143.5 q52.5 60 129 93.5 q76.5 33.5 176.5 33.5 q63 0 129 -16.5 q66 -16.5 125 -45.5 l-62 -127 q-52 26 -100.5 40 q-48.5 14 -91.5 14 ZM100 731 q0 104 27 200 q27 96 75.5 179.5 q48.5 83.5 117.5 152.5 q69 69 152.5 117.5 q83.5 48.5 179.5 75.5 q96 27 200 27 q104 0 200 -27 q96 -27 179.5 -75.5 q83.5 -48.5 152.5 -117.5 q69 -69 117.5 -152.5 q48.5 -83.5 75.5 -179.5 q27 -96 27 -200 q0 -104 -27 -200 q-27 -96 -75.5 -179.5 q-48.5 -83.5 -117.5 -152 q-69 -68.5 -152.5 -117.5 q-83.5 -49 -179.5 -75.5 q-96 -26.5 -200 -26.5 q-104 0 -200 26.5 q-96 26.5 -179.5 75.5 q-83.5 49 -152.5 117.5 q-69 68.5 -117.5 152 q-48.5 83.5 -75.5 179.5 q-27 96 -27 200 ZM209 731 q0 -133 50.5 -250 q50.5 -117 138 -204.5 q87.5 -87.5 204.5 -138 q117 -50.5 250 -50.5 q133 0 250 50.5 q117 50.5 204.5 138 q87.5 87.5 138 204.5 q50.5 117 50.5 250 q0 133 -50.5 250 q-50.5 117 -138 204.5 q-87.5 87.5 -204.5 138 q-117 50.5 -250 50.5 q-133 0 -250 -50.5 q-117 -50.5 -204.5 -138 q-87.5 -87.5 -138 -204.5 q-50.5 -117 -50.5 -250 Z" /><glyph glyph-name="ordfeminine" unicode="ª" d="M487 797 l-28 82 q-18 -22 -37.5 -39.5 q-19.5 -17.5 -43 -30 q-23.5 -12.5 -51.5 -19 q-28 -6.5 -63 -6.5 q-43 0 -79 13 q-36 13 -62 38.5 q-26 25.5 -40.5 64 q-14.5 38.5 -14.5 89.5 q0 102 70.5 156 q70.5 54 213.5 59 l99 4 l0 31 q0 72 -30.5 100.5 q-30.5 28.5 -86.5 28.5 q-48 0 -93 -14.5 q-45 -14.5 -87 -36.5 l-48 100 q51 26 109.5 44 q58.5 18 118.5 18 q125 0 184.5 -53 q59.5 -53 59.5 -175 l0 -454 l-91 0 ZM377 1110 q-51 -3 -85 -12 q-34 -9 -54.5 -24 q-20.5 -15 -29.5 -36.5 q-9 -21.5 -9 -50.5 q0 -51 25 -73.5 q25 -22.5 67 -22.5 q34 0 63 10.5 q29 10.5 50.5 32.5 q21.5 22 34 54.5 q12.5 32.5 12.5 76.5 l0 49 l-74 -4 Z" /><glyph glyph-name="guillemotleft" unicode="«" d="M82 553 l309 414 l117 -78 l-238 -348 l238 -348 l-117 -78 l-309 411 l0 27 ZM489 553 l310 414 l116 -78 l-237 -348 l237 -348 l-116 -78 l-310 411 l0 27 Z" /><glyph glyph-name="logicalnot" unicode="¬" d="M1026 797 l0 -535 l-149 0 l0 385 l-775 0 l0 150 l924 0 Z" /><glyph glyph-name="registered" unicode="®" d="M743 768 l72 0 q91 0 130.5 36 q39.5 36 39.5 105 q0 74 -41.5 103.5 q-41.5 29.5 -130.5 29.5 l-70 0 l0 -274 ZM1145 913 q0 -48 -13.5 -85.5 q-13.5 -37.5 -36 -66 q-22.5 -28.5 -51 -48.5 q-28.5 -20 -59.5 -33 q67 -110 120 -197 q23 -37 44 -72.5 q21 -35.5 37.5 -63.5 q16.5 -28 26.5 -45 l10 -17 l-179 0 l-206 352 l-95 0 l0 -352 l-157 0 l0 893 l233 0 q168 0 247 -65 q79 -65 79 -200 ZM100 731 q0 104 27 200 q27 96 75.5 179.5 q48.5 83.5 117.5 152.5 q69 69 152.5 117.5 q83.5 48.5 179.5 75.5 q96 27 200 27 q104 0 200 -27 q96 -27 179.5 -75.5 q83.5 -48.5 152.5 -117.5 q69 -69 117.5 -152.5 q48.5 -83.5 75.5 -179.5 q27 -96 27 -200 q0 -104 -27 -200 q-27 -96 -75.5 -179.5 q-48.5 -83.5 -117.5 -152 q-69 -68.5 -152.5 -117.5 q-83.5 -49 -179.5 -75.5 q-96 -26.5 -200 -26.5 q-104 0 -200 26.5 q-96 26.5 -179.5 75.5 q-83.5 49 -152.5 117.5 q-69 68.5 -117.5 152 q-48.5 83.5 -75.5 179.5 q-27 96 -27 200 ZM209 731 q0 -133 50.5 -250 q50.5 -117 138 -204.5 q87.5 -87.5 204.5 -138 q117 -50.5 250 -50.5 q133 0 250 50.5 q117 50.5 204.5 138 q87.5 87.5 138 204.5 q50.5 117 50.5 250 q0 133 -50.5 250 q-50.5 117 -138 204.5 q-87.5 87.5 -204.5 138 q-117 50.5 -250 50.5 q-133 0 -250 -50.5 q-117 -50.5 -204.5 -138 q-87.5 -87.5 -138 -204.5 q-50.5 -117 -50.5 -250 Z" /><glyph glyph-name="macron" unicode="¯" d="M1030 1556 l-1036 0 l0 140 l1036 0 l0 -140 Z" /><glyph glyph-name="degree" unicode="°" d="M123 1167 q0 65 25 122.5 q25 57.5 67.5 100.5 q42.5 43 100 68 q57.5 25 122.5 25 q65 0 122.5 -25 q57.5 -25 100.5 -68 q43 -43 68 -100.5 q25 -57.5 25 -122.5 q0 -65 -25 -122 q-25 -57 -68 -99.5 q-43 -42.5 -100.5 -67 q-57.5 -24.5 -122.5 -24.5 q-65 0 -122.5 24.5 q-57.5 24.5 -100 67 q-42.5 42.5 -67.5 99.5 q-25 57 -25 122 ZM246 1167 q0 -39 15 -73.5 q15 -34.5 41 -60.5 q26 -26 61 -41 q35 -15 75 -15 q40 0 75 15 q35 15 61.5 41 q26.5 26 41.5 60.5 q15 34.5 15 73.5 q0 40 -15 75.5 q-15 35.5 -41.5 62 q-26.5 26.5 -61.5 42 q-35 15.5 -75 15.5 q-40 0 -75 -15.5 q-35 -15.5 -61 -42 q-26 -26.5 -41 -62 q-15 -35.5 -15 -75.5 Z" /><glyph glyph-name="plusminus" unicode="±" d="M489 647 l-387 0 l0 150 l387 0 l0 389 l150 0 l0 -389 l387 0 l0 -150 l-387 0 l0 -385 l-150 0 l0 385 ZM102 0 l0 150 l924 0 l0 -150 l-924 0 Z" /><glyph glyph-name="twosuperior" unicode="²" d="M621 586 l-572 0 l0 112 l209 228 q57 62 93 104.5 q36 42.5 56 76 q20 33.5 27.5 63 q7.5 29.5 7.5 63.5 q0 65 -33 97 q-33 32 -87 32 q-51 0 -97.5 -25 q-46.5 -25 -91.5 -63 l-78 94 q54 48 120.5 80.5 q66.5 32.5 148.5 32.5 q60 0 108.5 -16.5 q48.5 -16.5 82.5 -48 q34 -31.5 52.5 -77 q18.5 -45.5 18.5 -102.5 q0 -50 -14.5 -93 q-14.5 -43 -41.5 -85.5 q-27 -42.5 -66.5 -88 q-39.5 -45.5 -90.5 -100.5 l-148 -157 l396 0 l0 -127 Z" /><glyph glyph-name="threesuperior" unicode="³" d="M590 1255 q0 -78 -40.5 -131 q-40.5 -53 -109.5 -77 q88 -23 132 -76 q44 -53 44 -131 q0 -60 -20 -110 q-20 -50 -61.5 -85.5 q-41.5 -35.5 -104.5 -55.5 q-63 -20 -149 -20 q-70 0 -131.5 12.5 q-61.5 12.5 -118.5 43.5 l0 133 q63 -34 129 -53 q66 -19 119 -19 q98 0 142 41.5 q44 41.5 44 114.5 q0 74 -53.5 107.5 q-53.5 33.5 -149.5 33.5 l-98 0 l0 113 l98 0 q92 0 134 39.5 q42 39.5 42 103.5 q0 32 -10 55.5 q-10 23.5 -27.5 38.5 q-17.5 15 -41 22 q-23.5 7 -50.5 7 q-59 0 -107.5 -20.5 q-48.5 -20.5 -99.5 -57.5 l-69 96 q29 23 59.5 41.5 q30.5 18.5 64.5 31.5 q34 13 72 20.5 q38 7.5 82 7.5 q69 0 121.5 -17 q52.5 -17 87.5 -47 q35 -30 52.5 -71.5 q17.5 -41.5 17.5 -90.5 Z" /><glyph glyph-name="acute" unicode="´" d="M393 1268 q22 29 45.5 67 q23.5 38 47 78.5 q23.5 40.5 44.5 81 q21 40.5 37 74.5 l219 0 l0 -21 q-16 -27 -47.5 -67.5 q-31.5 -40.5 -70 -84.5 q-38.5 -44 -79 -85.5 q-40.5 -41.5 -75.5 -69.5 l-121 0 l0 27 Z" /><glyph glyph-name="mu" unicode="µ" d="M356 391 q0 -130 53 -195 q53 -65 164 -65 q82 0 137 26 q55 26 88.5 76.5 q33.5 50.5 47.5 124.5 q14 74 14 170 l0 570 l182 0 l0 -1098 l-147 0 l-27 147 l-10 0 q-48 -83 -120 -125 q-72 -42 -175 -42 q-72 0 -125 23 q-53 23 -88 65 q1 -38 3 -78 q2 -35 2.5 -77.5 q0.5 -42.5 0.5 -84.5 l0 -320 l-182 0 l0 1590 l182 0 l0 -707 Z" /><glyph glyph-name="paragraph" unicode="¶" d="M1126 -260 l-120 0 l0 1657 l-207 0 l0 -1657 l-121 0 l0 819 q-61 -18 -146 -18 q-95 0 -172.5 25.5 q-77.5 25.5 -132 84.5 q-54.5 59 -84.5 155 q-30 96 -30 236 q0 147 32.5 245.5 q32.5 98.5 92 158.5 q59.5 60 142.5 85 q83 25 183 25 l563 0 l0 -1816 Z" /><glyph glyph-name="periodcentered" unicode="·" d="M147 723 q0 38 10 64.5 q10 26.5 27 43 q17 16.5 40 24 q23 7.5 50 7.5 q26 0 49.5 -7.5 q23.5 -7.5 40.5 -24 q17 -16.5 27 -43 q10 -26.5 10 -64.5 q0 -37 -10 -63 q-10 -26 -27 -43 q-17 -17 -40.5 -25 q-23.5 -8 -49.5 -8 q-27 0 -50 8 q-23 8 -40 25 q-17 17 -27 43 q-10 26 -10 63 Z" /><glyph glyph-name="cedilla" unicode="¸" d="M408 -287 q0 -97 -70.5 -151 q-70.5 -54 -220.5 -54 q-22 0 -44.5 3 q-22.5 3 -37.5 6 l0 108 q15 -3 39.5 -4.5 q24.5 -1.5 40.5 -1.5 q71 0 111 21.5 q40 21.5 40 70.5 q0 24 -13 41.5 q-13 17.5 -36 30.5 q-23 13 -54.5 22.5 q-31.5 9.5 -68.5 18.5 l90 176 l121 0 l-57 -115 q34 -8 63 -21 q29 -13 50.5 -33.5 q21.5 -20.5 34 -49.5 q12.5 -29 12.5 -68 Z" /><glyph glyph-name="onesuperior" unicode="¹" d="M307 1462 l135 0 l0 -876 l-145 0 l0 516 q0 25 0.5 55 q0.5 30 2 60 q1.5 30 3 58 q1.5 28 2.5 50 q-14 -17 -33 -37 q-19 -20 -41 -37 l-94 -73 l-74 96 l244 188 Z" /><glyph glyph-name="ordmasculine" unicode="º" d="M651 1133 q0 -83 -20.5 -148 q-20.5 -65 -59 -109.5 q-38.5 -44.5 -93 -68 q-54.5 -23.5 -122.5 -23.5 q-63 0 -116 23.5 q-53 23.5 -92 68 q-39 44.5 -60.5 109.5 q-21.5 65 -21.5 148 q0 83 20.5 147.5 q20.5 64.5 58.5 108.5 q38 44 92.5 67 q54.5 23 122.5 23 q62 0 115.5 -23 q53.5 -23 92.5 -67 q39 -44 61 -108.5 q22 -64.5 22 -147.5 ZM197 1133 q0 -119 37.5 -179.5 q37.5 -60.5 123.5 -60.5 q85 0 122.5 60.5 q37.5 60.5 37.5 179.5 q0 120 -37.5 177.5 q-37.5 57.5 -122.5 57.5 q-86 0 -123.5 -57.5 q-37.5 -57.5 -37.5 -177.5 Z" /><glyph glyph-name="guillemotright" unicode="»" d="M918 526 l-310 -411 l-116 78 l237 348 l-237 348 l116 78 l310 -414 l0 -27 ZM510 526 l-309 -411 l-117 78 l238 348 l-238 348 l117 78 l309 -414 l0 -27 Z" /><glyph glyph-name="questiondown" unicode="¿" d="M592 676 l0 -37 q0 -58 -8 -103.5 q-8 -45.5 -27.5 -86 q-19.5 -40.5 -52 -78.5 q-32.5 -38 -82.5 -80 q-48 -41 -82 -74.5 q-34 -33.5 -55.5 -68 q-21.5 -34.5 -32 -74 q-10.5 -39.5 -10.5 -92.5 q0 -48 15 -87.5 q15 -39.5 43.5 -68 q28.5 -28.5 71 -44 q42.5 -15.5 97.5 -15.5 q84 0 159 25.5 q75 25.5 144 60.5 l64 -146 q-82 -42 -176 -71 q-94 -29 -191 -29 q-93 0 -167.5 25.5 q-74.5 25.5 -126 73.5 q-51.5 48 -79.5 117 q-28 69 -28 157 q0 68 13.5 120 q13.5 52 40 97 q26.5 45 67 87 q40.5 42 94.5 89 q52 45 85 78.5 q33 33.5 52 64.5 q19 31 26 64.5 q7 33.5 7 76.5 l0 19 l139 0 ZM639 979 q0 -38 -9.5 -64.5 q-9.5 -26.5 -27 -43 q-17.5 -16.5 -40.5 -24 q-23 -7.5 -50 -7.5 q-26 0 -49 7.5 q-23 7.5 -40.5 24 q-17.5 16.5 -27.5 43 q-10 26.5 -10 64.5 q0 37 10 63 q10 26 27.5 43 q17.5 17 40.5 25 q23 8 49 8 q27 0 50 -8 q23 -8 40.5 -25 q17.5 -17 27 -43 q9.5 -26 9.5 -63 Z" /><glyph glyph-name="AE" unicode="æ" d="M1622 0 l-760 0 l0 453 l-475 0 l-203 -453 l-186 0 l655 1462 l969 0 l0 -164 l-573 0 l0 -452 l534 0 l0 -162 l-534 0 l0 -520 l573 0 l0 -164 ZM459 618 l403 0 l0 680 l-108 0 l-295 -680 Z" /><glyph glyph-name="Eth" unicode="ð" d="M47 805 l152 0 l0 657 l407 0 q153 0 277 -46 q124 -46 211 -136.5 q87 -90.5 134.5 -224.5 q47.5 -134 47.5 -310 q0 -185 -48 -324.5 q-48 -139.5 -139 -233 q-91 -93.5 -223.5 -140.5 q-132.5 -47 -300.5 -47 l-366 0 l0 643 l-152 0 l0 162 ZM1079 739 q0 146 -33 252.5 q-33 106.5 -96 175.5 q-63 69 -155 102.5 q-92 33.5 -209 33.5 l-201 0 l0 -498 l336 0 l0 -162 l-336 0 l0 -483 l162 0 q264 0 398 146 q134 146 134 433 Z" /><glyph glyph-name="multiply" unicode="×" d="M459 723 l-318 319 l105 105 l317 -318 l322 318 l104 -103 l-321 -321 l319 -320 l-102 -102 l-322 317 l-317 -315 l-103 103 l316 317 Z" /><glyph glyph-name="Oslash" unicode="ø" d="M1300 1454 l-92 -149 q91 -99 138 -244 q47 -145 47 -328 q0 -169 -40.5 -308 q-40.5 -139 -120.5 -238 q-80 -99 -198.5 -153 q-118.5 -54 -273.5 -54 q-189 0 -322 71 l-78 -127 l-137 78 l90 145 q-97 100 -142.5 249 q-45.5 149 -45.5 339 q0 170 38 308.5 q38 138.5 117 236.5 q79 98 199 151.5 q120 53.5 283 53.5 q94 0 174.5 -21 q80.5 -21 146.5 -59 l80 127 l137 -78 ZM322 733 q0 -131 23 -235.5 q23 -104.5 71 -182.5 l579 945 q-48 29 -105 45 q-57 16 -128 16 q-114 0 -197 -40.5 q-83 -40.5 -137 -116 q-54 -75.5 -80 -184.5 q-26 -109 -26 -247 ZM1196 733 q0 257 -88 408 l-578 -940 q47 -28 104 -43 q57 -15 126 -15 q114 0 196.5 40.5 q82.5 40.5 136 117 q53.5 76.5 78.5 186 q25 109.5 25 246.5 Z" /><glyph glyph-name="Thorn" unicode="þ" d="M1075 782 q0 -91 -27.5 -175 q-27.5 -84 -90.5 -148.5 q-63 -64.5 -166.5 -103 q-103.5 -38.5 -255.5 -38.5 l-150 0 l0 -317 l-186 0 l0 1462 l186 0 l0 -252 l176 0 q134 0 231 -28.5 q97 -28.5 160 -83 q63 -54.5 93 -134.5 q30 -80 30 -182 ZM385 475 l129 0 q93 0 162.5 16 q69.5 16 115 51.5 q45.5 35.5 68.5 92 q23 56.5 23 137.5 q0 143 -82 211 q-82 68 -256 68 l-160 0 l0 -576 Z" /><glyph glyph-name="germandbls" unicode="ß" d="M1010 1260 q0 -57 -21.5 -101.5 q-21.5 -44.5 -53 -81 q-31.5 -36.5 -69 -66.5 q-37.5 -30 -69 -57.5 q-31.5 -27.5 -53 -54.5 q-21.5 -27 -21.5 -57 q0 -21 7 -37.5 q7 -16.5 26.5 -36 q19.5 -19.5 54.5 -44 q35 -24.5 92 -62.5 q56 -37 100 -73 q44 -36 74.5 -77 q30.5 -41 47 -89 q16.5 -48 16.5 -110 q0 -87 -28 -150 q-28 -63 -78.5 -103.5 q-50.5 -40.5 -121 -60 q-70.5 -19.5 -155.5 -19.5 q-97 0 -166.5 17.5 q-69.5 17.5 -122.5 51.5 l0 166 q26 -16 58.5 -31.5 q32.5 -15.5 68.5 -27.5 q36 -12 74 -19.5 q38 -7.5 75 -7.5 q56 0 96.5 12.5 q40.5 12.5 66.5 35 q26 22.5 38 54.5 q12 32 12 72 q0 36 -8.5 65.5 q-8.5 29.5 -30 57.5 q-21.5 28 -57.5 57 q-36 29 -92 64 q-63 40 -105.5 74 q-42.5 34 -69 67.5 q-26.5 33.5 -37.5 68.5 q-11 35 -11 77 q0 54 20.5 93.5 q20.5 39.5 51.5 71 q31 31.5 67 58.5 q36 27 67 56 q31 29 51.5 62.5 q20.5 33.5 20.5 77.5 q0 42 -16.5 73 q-16.5 31 -46.5 51.5 q-30 20.5 -71.5 30 q-41.5 9.5 -92.5 9.5 q-49 0 -93 -9.5 q-44 -9.5 -77 -33.5 q-33 -24 -52.5 -65.5 q-19.5 -41.5 -19.5 -106.5 l0 -1202 l-182 0 l0 1200 q0 104 31.5 174.5 q31.5 70.5 88 113 q56.5 42.5 134.5 61 q78 18.5 170 18.5 q92 0 168 -19 q76 -19 130 -57 q54 -38 84 -96 q30 -58 30 -135 Z" /><glyph glyph-name="ae" unicode="æ" d="M94 307 q0 164 115.5 252 q115.5 88 351.5 96 l184 7 l0 69 q0 67 -14.5 112 q-14.5 45 -42 72.5 q-27.5 27.5 -68 39.5 q-40.5 12 -92.5 12 q-83 0 -154.5 -24 q-71.5 -24 -137.5 -58 l-64 137 q74 40 165 68 q91 28 191 28 q131 0 214 -42.5 q83 -42.5 126 -135.5 q51 85 134 131.5 q83 46.5 186 46.5 q97 0 174 -35.5 q77 -35.5 131 -100 q54 -64.5 82.5 -155 q28.5 -90.5 28.5 -200.5 l0 -113 l-672 0 q5 -193 78.5 -284 q73.5 -91 220.5 -91 q49 0 91.5 5 q42.5 5 81.5 14.5 q39 9.5 76 24 q37 14.5 74 32.5 l0 -162 q-39 -19 -76.5 -33 q-37.5 -14 -77 -23 q-39.5 -9 -82 -13 q-42.5 -4 -91.5 -4 q-138 0 -239 57 q-101 57 -163 172 q-34 -54 -72 -96.5 q-38 -42.5 -85.5 -72 q-47.5 -29.5 -105.5 -45 q-58 -15.5 -132 -15.5 q-71 0 -132.5 19.5 q-61.5 19.5 -106.5 60 q-45 40.5 -71 102 q-26 61.5 -26 145.5 ZM283 305 q0 -92 48.5 -135 q48.5 -43 127.5 -43 q61 0 113 19 q52 19 90 57.5 q38 38.5 59.5 97 q21.5 58.5 21.5 137.5 l0 99 l-143 -7 q-90 -4 -151 -20 q-61 -16 -97.5 -44.5 q-36.5 -28.5 -52.5 -69 q-16 -40.5 -16 -91.5 ZM1184 967 q-110 0 -173.5 -78 q-63.5 -78 -74.5 -227 l471 0 q0 68 -13 124.5 q-13 56.5 -40.5 96.5 q-27.5 40 -69.5 62 q-42 22 -100 22 Z" /><glyph glyph-name="eth" unicode="ð" d="M1069 573 q0 -142 -33.5 -252 q-33.5 -110 -96 -186 q-62.5 -76 -151.5 -115.5 q-89 -39.5 -200 -39.5 q-104 0 -191.5 33 q-87.5 33 -151 96.5 q-63.5 63.5 -99 156 q-35.5 92.5 -35.5 211.5 q0 119 31.5 211 q31.5 92 90.5 155 q59 63 143 95.5 q84 32.5 189 32.5 q102 0 179 -29.5 q77 -29.5 120 -89.5 l8 4 q-31 118 -91 214 q-60 96 -150 177 l-256 -153 l-74 114 l217 131 q-40 28 -82.5 55.5 q-42.5 27.5 -89.5 53.5 l70 123 q65 -32 126 -68 q61 -36 120 -80 l227 138 l74 -113 l-195 -117 q67 -65 122.5 -143 q55.5 -78 95 -171.5 q39.5 -93.5 61.5 -204 q22 -110.5 22 -239.5 ZM881 526 q0 56 -17 109.5 q-17 53.5 -52 94.5 q-35 41 -90 66 q-55 25 -130 25 q-77 0 -131.5 -23 q-54.5 -23 -89.5 -67 q-35 -44 -51.5 -109.5 q-16.5 -65.5 -16.5 -150.5 q0 -76 16.5 -138.5 q16.5 -62.5 52 -107.5 q35.5 -45 90 -69.5 q54.5 -24.5 130.5 -24.5 q154 0 221.5 99.5 q67.5 99.5 67.5 295.5 Z" /><glyph glyph-name="divide" unicode="÷" d="M102 647 l0 150 l924 0 l0 -150 l-924 0 ZM449 373 q0 35 9 58.5 q9 23.5 24.5 38.5 q15.5 15 36 21.5 q20.5 6.5 44.5 6.5 q23 0 44 -6.5 q21 -6.5 37 -21.5 q16 -15 25 -38.5 q9 -23.5 9 -58.5 q0 -33 -9 -56.5 q-9 -23.5 -25 -39 q-16 -15.5 -37 -22.5 q-21 -7 -44 -7 q-24 0 -44.5 7 q-20.5 7 -36 22.5 q-15.5 15.5 -24.5 39 q-9 23.5 -9 56.5 ZM449 1071 q0 35 9 58.5 q9 23.5 24.5 38.5 q15.5 15 36 21.5 q20.5 6.5 44.5 6.5 q23 0 44 -6.5 q21 -6.5 37 -21.5 q16 -15 25 -38.5 q9 -23.5 9 -58.5 q0 -33 -9 -56.5 q-9 -23.5 -25 -39 q-16 -15.5 -37 -22.5 q-21 -7 -44 -7 q-24 0 -44.5 7 q-20.5 7 -36 22.5 q-15.5 15.5 -24.5 39 q-9 23.5 -9 56.5 Z" /><glyph glyph-name="oslash" unicode="ø" d="M1071 551 q0 -137 -33.5 -243.5 q-33.5 -106.5 -96 -179 q-62.5 -72.5 -151.5 -110.5 q-89 -38 -200 -38 q-125 0 -223 53 l-68 -109 l-131 74 l80 131 q-63 72 -98 178.5 q-35 106.5 -35 243.5 q0 136 33.5 241.5 q33.5 105.5 95.5 178 q62 72.5 151.5 110 q89.5 37.5 200.5 37.5 q63 0 119.5 -14.5 q56.5 -14.5 105.5 -42.5 l68 108 l131 -73 l-80 -129 q62 -73 96.5 -177.5 q34.5 -104.5 34.5 -238.5 ZM303 551 q0 -84 9.5 -149.5 q9.5 -65.5 31.5 -116.5 l397 647 q-29 17 -66.5 26 q-37.5 9 -82.5 9 q-154 0 -221.5 -103.5 q-67.5 -103.5 -67.5 -312.5 ZM883 551 q0 159 -39 258 l-398 -645 q31 -17 67 -25 q36 -8 81 -8 q154 0 221.5 105.5 q67.5 105.5 67.5 314.5 Z" /><glyph glyph-name="thorn" unicode="þ" d="M356 950 q23 35 52 65.5 q29 30.5 67.5 53 q38.5 22.5 86.5 36 q48 13.5 108 13.5 q94 0 171 -36 q77 -36 131.5 -107.5 q54.5 -71.5 84.5 -177.5 q30 -106 30 -246 q0 -141 -30 -247.5 q-30 -106.5 -84.5 -178.5 q-54.5 -72 -131.5 -108.5 q-77 -36.5 -171 -36.5 q-59 0 -107 13 q-48 13 -86.5 34.5 q-38.5 21.5 -68 50.5 q-29.5 29 -52.5 61 l-12 0 q3 -34 6 -65 q2 -26 4 -53.5 q2 -27.5 2 -43.5 l0 -469 l-182 0 l0 2048 l182 0 l0 -458 l-8 -148 l8 0 ZM635 967 q-76 0 -128.5 -23 q-52.5 -23 -85 -70 q-32.5 -47 -48 -117 q-15.5 -70 -17.5 -165 l0 -41 q0 -101 13.5 -179.5 q13.5 -78.5 46 -132 q32.5 -53.5 86.5 -81 q54 -27.5 135 -27.5 q135 0 198.5 109 q63.5 109 63.5 313 q0 208 -63.5 311 q-63.5 103 -200.5 103 Z" /><glyph glyph-name="dotlessi" unicode="&#x131;" d="M356 0 l-182 0 l0 1098 l182 0 l0 -1098 Z" /><glyph glyph-name="circumflex" unicode="&#x2c6;" d="M922 1241 l-121 0 q-51 34 -105 82.5 q-54 48.5 -106 103.5 q-54 -55 -107 -103.5 q-53 -48.5 -104 -82.5 l-121 0 l0 27 q26 29 60 67 q34 38 67.5 78.5 q33.5 40.5 63 81 q29.5 40.5 45.5 74.5 l192 0 q16 -34 45.5 -74.5 q29.5 -40.5 63 -81 q33.5 -40.5 68 -78.5 q34.5 -38 59.5 -67 l0 -27 Z" /><glyph glyph-name="ring" unicode="&#x2da;" d="M817 1458 q0 -51 -17.5 -91.5 q-17.5 -40.5 -48 -68.5 q-30.5 -28 -72.5 -42.5 q-42 -14.5 -91 -14.5 q-50 0 -91 14.5 q-41 14.5 -70.5 42.5 q-29.5 28 -45.5 67.5 q-16 39.5 -16 90.5 q0 51 16 90.5 q16 39.5 45.5 67.5 q29.5 28 70.5 42.5 q41 14.5 91 14.5 q48 0 90 -14.5 q42 -14.5 73 -42 q31 -27.5 48.5 -67 q17.5 -39.5 17.5 -89.5 ZM700 1456 q0 53 -31.5 83 q-31.5 30 -80.5 30 q-50 0 -81.5 -30 q-31.5 -30 -31.5 -83 q0 -53 28.5 -83 q28.5 -30 84.5 -30 q49 0 80.5 30 q31.5 30 31.5 83 Z" /><glyph glyph-name="tilde" unicode="&#x2dc;" d="M766 1243 q-40 0 -79.5 17.5 q-39.5 17.5 -77.5 39 q-38 21.5 -73 39 q-35 17.5 -67 17.5 q-45 0 -69 -26.5 q-24 -26.5 -38 -88.5 l-104 0 q5 60 21.5 109 q16.5 49 43 83.5 q26.5 34.5 63.5 53 q37 18.5 83 18.5 q42 0 82.5 -17.5 q40.5 -17.5 78.5 -38.5 q38 -21 72.5 -38.5 q34.5 -17.5 63.5 -17.5 q45 0 68 26 q23 26 38 88 l105 0 q-5 -60 -21.5 -108.5 q-16.5 -48.5 -43 -83 q-26.5 -34.5 -63.5 -53.5 q-37 -19 -83 -19 Z" /><glyph glyph-name="endash" unicode="&#x2013;" d="M82 465 l0 168 l860 0 l0 -168 l-860 0 Z" /><glyph glyph-name="emdash" unicode="&#x2014;" d="M82 465 l0 168 l1884 0 l0 -168 l-1884 0 Z" /><glyph glyph-name="quoteleft" unicode="&#x2018;" d="M37 961 l-14 22 q14 54 33.5 115 q19.5 61 42.5 123 q23 62 49 123.5 q26 61.5 51 117.5 l137 0 q-15 -61 -29.5 -127 q-14.5 -66 -27.5 -131.5 q-13 -65.5 -24 -127.5 q-11 -62 -19 -115 l-199 0 Z" /><glyph glyph-name="quoteright" unicode="&#x2019;" d="M322 1462 l14 -22 q-14 -55 -33.5 -115.5 q-19.5 -60.5 -43 -123 q-23.5 -62.5 -49 -123.5 q-25.5 -61 -50.5 -117 l-137 0 q14 60 28.5 126 q14.5 66 28 132 q13.5 66 24.5 128 q11 62 19 115 l199 0 Z" /><glyph glyph-name="quotesinglbase" unicode="&#x201a;" d="M362 238 l15 -23 q-14 -54 -33.5 -115 q-19.5 -61 -43 -123 q-23.5 -62 -49 -123.5 q-25.5 -61.5 -50.5 -117.5 l-138 0 q15 61 29.5 127 q14.5 66 28 131.5 q13.5 65.5 24.5 128 q11 62.5 19 115.5 l198 0 Z" /><glyph glyph-name="quotedblleft" unicode="&#x201c;" d="M422 961 l-14 22 q14 54 33.5 115 q19.5 61 42.5 123 q23 62 49 123.5 q26 61.5 51 117.5 l137 0 q-15 -61 -29.5 -127 q-14.5 -66 -27.5 -131.5 q-13 -65.5 -24 -127.5 q-11 -62 -19 -115 l-199 0 ZM37 961 l-14 22 q14 54 33.5 115 q19.5 61 42.5 123 q23 62 49 123.5 q26 61.5 51 117.5 l137 0 q-15 -61 -29.5 -127 q-14.5 -66 -27.5 -131.5 q-13 -65.5 -24 -127.5 q-11 -62 -19 -115 l-199 0 Z" /><glyph glyph-name="quotedblright" unicode="&#x201d;" d="M322 1462 l14 -22 q-14 -55 -33.5 -115.5 q-19.5 -60.5 -43 -123 q-23.5 -62.5 -49 -123.5 q-25.5 -61 -50.5 -117 l-137 0 q14 60 28.5 126 q14.5 66 28 132 q13.5 66 24.5 128 q11 62 19 115 l199 0 ZM707 1462 l14 -22 q-14 -55 -33.5 -115.5 q-19.5 -60.5 -43 -123 q-23.5 -62.5 -49 -123.5 q-25.5 -61 -50.5 -117 l-137 0 q14 60 28.5 126 q14.5 66 28 132 q13.5 66 24.5 128 q11 62 19 115 l199 0 Z" /><glyph glyph-name="quotedblbase" unicode="&#x201e;" d="M362 238 l15 -23 q-14 -54 -33.5 -115 q-19.5 -61 -43 -123 q-23.5 -62 -49 -123.5 q-25.5 -61.5 -50.5 -117.5 l-138 0 q15 61 29.5 127 q14.5 66 28 131.5 q13.5 65.5 24.5 128 q11 62.5 19 115.5 l198 0 ZM748 238 l14 -23 q-14 -54 -33.5 -115 q-19.5 -61 -43 -123 q-23.5 -62 -49 -123.5 q-25.5 -61.5 -50.5 -117.5 l-137 0 q14 61 28.5 127 q14.5 66 28 131.5 q13.5 65.5 24.5 128 q11 62.5 19 115.5 l199 0 Z" /><glyph glyph-name="bullet" unicode="&#x2022;" d="M150 748 q0 71 18 121 q18 50 49.5 81.5 q31.5 31.5 74.5 45.5 q43 14 93 14 q49 0 92 -14 q43 -14 75 -45.5 q32 -31.5 50.5 -81.5 q18.5 -50 18.5 -121 q0 -70 -18.5 -120 q-18.5 -50 -50.5 -81.5 q-32 -31.5 -75 -46.5 q-43 -15 -92 -15 q-50 0 -93 15 q-43 15 -74.5 46.5 q-31.5 31.5 -49.5 81.5 q-18 50 -18 120 Z" /><glyph glyph-name="guilsinglleft" unicode="&#x2039;" d="M82 553 l309 414 l117 -78 l-238 -348 l238 -348 l-117 -78 l-309 411 l0 27 Z" /><glyph glyph-name="guilsinglright" unicode="&#x203a;" d="M508 526 l-309 -411 l-117 78 l237 348 l-237 348 l117 78 l309 -414 l0 -27 Z" /><glyph glyph-name="fraction" unicode="&#x2044;" d="M616 1462 l-811 -1462 l-157 0 l811 1462 l157 0 Z" /></font>
</defs>
</svg>
